<svg xmlns="http://www.w3.org/2000/svg" xmlns:xlink="http://www.w3.org/1999/xlink" viewBox="0 0 92.26 92.41"><defs><style>.cls-1{fill:url(#linear-gradient);}.cls-2{fill:url(#linear-gradient-2);}.cls-3{fill:url(#linear-gradient-3);}.cls-4{fill:url(#linear-gradient-4);}.cls-5{fill:url(#linear-gradient-5);}.cls-6{fill:url(#linear-gradient-6);}.cls-7{fill:url(#linear-gradient-7);}.cls-8{fill:url(#linear-gradient-8);}.cls-9{fill:url(#linear-gradient-9);}.cls-10{fill:url(#linear-gradient-10);}.cls-11{fill:url(#linear-gradient-11);}.cls-12{fill:url(#linear-gradient-12);}.cls-13{fill:url(#linear-gradient-13);}.cls-14{fill:url(#linear-gradient-14);}.cls-15{fill:url(#linear-gradient-15);}</style><linearGradient id="linear-gradient" x1="296.08" y1="270.02" x2="459.07" y2="371.8" gradientTransform="matrix(0.28, 0.96, 0.96, -0.28, -370.17, -221.66)" gradientUnits="userSpaceOnUse"><stop offset="0" stop-color="#0070ac"/><stop offset="0.4" stop-color="#a93a82"/><stop offset="1" stop-color="#e50d6a"/></linearGradient><linearGradient id="linear-gradient-2" x1="294.48" y1="272.59" x2="457.47" y2="374.37" xlink:href="#linear-gradient"/><linearGradient id="linear-gradient-3" x1="293.54" y1="274.1" x2="456.53" y2="375.87" xlink:href="#linear-gradient"/><linearGradient id="linear-gradient-4" x1="293.04" y1="274.89" x2="456.03" y2="376.66" xlink:href="#linear-gradient"/><linearGradient id="linear-gradient-5" x1="292.72" y1="275.4" x2="455.71" y2="377.18" xlink:href="#linear-gradient"/><linearGradient id="linear-gradient-6" x1="292.45" y1="275.84" x2="455.44" y2="377.61" xlink:href="#linear-gradient"/><linearGradient id="linear-gradient-7" x1="292.23" y1="276.2" x2="455.22" y2="377.97" xlink:href="#linear-gradient"/><linearGradient id="linear-gradient-8" x1="292.13" y1="276.35" x2="455.12" y2="378.12" xlink:href="#linear-gradient"/><linearGradient id="linear-gradient-9" x1="292.4" y1="275.92" x2="455.39" y2="377.69" xlink:href="#linear-gradient"/><linearGradient id="linear-gradient-10" x1="293.08" y1="274.83" x2="456.07" y2="376.6" xlink:href="#linear-gradient"/><linearGradient id="linear-gradient-11" x1="293.69" y1="273.85" x2="456.68" y2="375.63" xlink:href="#linear-gradient"/><linearGradient id="linear-gradient-12" x1="293.9" y1="273.52" x2="456.89" y2="375.29" xlink:href="#linear-gradient"/><linearGradient id="linear-gradient-13" x1="293.87" y1="273.57" x2="456.86" y2="375.34" xlink:href="#linear-gradient"/><linearGradient id="linear-gradient-14" x1="293.76" y1="273.75" x2="456.75" y2="375.52" xlink:href="#linear-gradient"/><linearGradient id="linear-gradient-15" x1="293.67" y1="273.88" x2="456.66" y2="375.65" xlink:href="#linear-gradient"/></defs><g id="Layer_2" data-name="Layer 2"><g id="Layer_1-2" data-name="Layer 1"><path class="cls-1" d="M35.9,73a24,24,0,0,1-.61-2.83c-1.46-9.33,1.94-22,7.72-28.73,4.78-5.6,9.4-6,12.44-5.34,5.32,1.15,9.92,6.36,12,13.6a29.79,29.79,0,0,1-1.93,21.26C61.66,78.88,54.3,83.81,47.19,83.2,41.76,82.73,37.64,79,35.9,73ZM66.79,49.86c-2-6.89-6.49-12-11.49-13.12-4.09-.89-8.16.88-11.77,5.11-5.67,6.65-9,19-7.57,28.18a23,23,0,0,0,.61,2.75c1.65,5.74,5.55,9.29,10.68,9.74,6.82.58,13.91-4.19,17.65-11.88A29.07,29.07,0,0,0,66.79,49.86Z"/><path class="cls-2" d="M26.47,77c-4.6-16,2.6-43.73,14-54,4.31-3.88,9.31-5.67,14.47-5.18,10.5,1,19.39,9.87,23.21,23.13a45.85,45.85,0,0,1-.25,26.67A33.7,33.7,0,0,1,60.11,88.17c-10.34,4.92-24.8,4.22-31.1-5.48A21.19,21.19,0,0,1,26.47,77Zm51-35.85c-3.74-13-12.4-21.66-22.61-22.64-5-.47-9.79,1.26-14,5-11,9.93-18.24,37.82-13.79,53.29a20.89,20.89,0,0,0,2.44,5.56c6.11,9.38,20.17,10,30.24,5.23C78.58,78.62,82.13,57.22,77.49,41.1Z"/><path class="cls-3" d="M20.62,77.57C16.09,61.82,22.87,27.33,35.75,15A23.09,23.09,0,0,1,59.09,9.46C70.86,13.05,79.9,23.08,83.9,37c4,14.06,1.91,29.39-5.58,40-6.57,9.3-16.76,14.62-29.45,15.39a48.15,48.15,0,0,1-6.11,0c-11.23-.77-18.21-4.83-21.36-12.43C21.13,79.17,20.85,78.39,20.62,77.57Zm62.62-40.4c-3.93-13.67-12.81-23.52-24.35-27a22.42,22.42,0,0,0-22.66,5.32C23.49,27.69,16.8,61.81,21.28,77.39a23.22,23.22,0,0,0,.77,2.23c3,7.33,9.82,11.25,20.77,12a48.62,48.62,0,0,0,6,0c12.48-.76,22.48-6,28.92-15.1C85.13,66.13,87.23,51,83.24,37.17Z"/><path class="cls-4" d="M16.42,76.29a39.14,39.14,0,0,1-1.32-9.2C14.6,54.27,19,23.75,31.43,11.31c6.49-6.49,15.69-9,25.25-6.78,14.41,3.29,25.79,14.88,30.43,31C90.93,48.82,89.33,63,82.82,73.36c-5.75,9.16-14.94,15.06-26.61,17.07a69.84,69.84,0,0,1-20.28.11C24.5,88.82,18.85,84.7,16.42,76.29Zm70-40.6C81.89,19.83,70.71,8.43,56.53,5.19c-9.32-2.13-18.29.28-24.61,6.6C19.64,24.08,15.3,54.33,15.79,67.05a37.86,37.86,0,0,0,1.3,9C19.42,84.2,24.91,88.19,36,89.85a69.11,69.11,0,0,0,20.07-.1C67.57,87.77,76.6,82,82.24,73,88.66,62.76,90.23,48.82,86.45,35.69Z"/><path class="cls-5" d="M12.94,74.22c-1.17-4.06-1.58-9.25-1.25-15.86C12.31,45.69,16.31,21.24,27.33,10,33.94,3.22,43.62.28,53.89,1.91c16.67,2.65,30.17,15.22,35.22,32.8C94.88,54.74,88.44,79,65,86.58c-8.85,2.87-21.44,2.91-29.55,2.07C23.76,87.44,15.93,84.61,12.94,74.22ZM88.46,34.9c-5-17.32-18.28-29.7-34.68-32.31-10.05-1.6-19.51,1.27-26,7.86C16.94,21.58,13,45.83,12.38,58.4c-.33,6.53.08,11.65,1.22,15.63C16.48,84,24.12,86.79,35.51,88c8,.83,20.53.8,29.28-2C87.82,78.48,94.13,54.62,88.46,34.9Z"/><path class="cls-6" d="M9.53,71.23A46.25,46.25,0,0,1,8.08,58c.13-11.36,3.45-36,15.19-48.1C30.05,2.94,40.09-.48,50.82.54,73.47,2.67,86.12,19.32,90.39,34.2c5.27,18.31,0,41.59-24,49.46-12.2,4-34.93,3.6-44.28.48C17.28,82.51,12,79.7,9.53,71.23ZM89.74,34.38c-4.22-14.65-16.68-31.06-39-33.16-10.52-1-20.36,2.35-27,9.17C12.18,22.28,8.89,46.74,8.77,58A45.09,45.09,0,0,0,10.2,71c2.35,8.18,7.47,10.88,12.16,12.45C31.61,86.58,54.12,87,66.21,83,89.77,75.27,94.92,52.39,89.74,34.38Z"/><path class="cls-7" d="M5.93,66.94A41.36,41.36,0,0,1,4.5,57.25C4,45.09,7.43,22.67,19.17,10.68c7-7.12,17.24-11,28.15-10.66,25,.79,38.85,18.39,43.12,33.22,4.93,17.13-.35,38.1-23.25,46.34-11.89,4.27-40.42,5.87-51.79-.32C10.67,76.68,7.57,72.66,5.93,66.94ZM89.79,33.43C85.59,18.82,71.93,1.48,47.3.7,36.58.37,26.51,4.18,19.66,11.16,8.07,23,4.66,45.18,5.19,57.21a41.71,41.71,0,0,0,1.4,9.54c1.59,5.53,4.58,9.42,9.14,11.9C27,84.76,55.18,83.16,67,78.92,89.44,70.84,94.63,50.25,89.79,33.43Z"/><path class="cls-8" d="M2.67,61.44A42.22,42.22,0,0,1,1.34,48c.56-14.11,5.77-27.45,13.94-35.7C24.26,3.19,38.34-1.06,52,1.18,69.46,4,83.1,15.56,87.61,31.25a34.79,34.79,0,0,1-1.49,24c-3.66,8-10.52,14.38-19.83,18.34-13.2,5.6-39.85,7.49-52.14,1.71A21,21,0,0,1,2.67,61.44ZM87,31.44C82.52,16,69.09,4.66,51.91,1.86c-13.46-2.21-27.32,2-36.15,10.88C7.71,20.87,2.58,34,2,48A41.41,41.41,0,0,0,3.33,61.25,20.34,20.34,0,0,0,14.44,74.69C26.37,80.3,53.22,78.4,66,73,87.66,63.78,90.82,44.86,87,31.44Z"/><path class="cls-9" d="M1.21,55.15c-1.87-6.5-1.56-14.72.85-22.54C8.1,13,25.85,1.24,46.23,3.35,62.42,5,75.45,15,79.42,28.81a28.87,28.87,0,0,1-3.7,24.33c-4.65,7-14.67,15.81-36,18.27C30.17,72.51,13,72.87,5.07,62.87A22.23,22.23,0,0,1,1.21,55.15ZM78.76,29C74.86,15.49,62.07,5.68,46.16,4,26.11,2,8.65,13.53,2.71,32.82.34,40.52,0,48.59,1.87,55a21.65,21.65,0,0,0,3.74,7.5c7.68,9.74,24.62,9.37,34,8.27,21.06-2.44,30.92-11.11,35.48-18A28.1,28.1,0,0,0,78.76,29Z"/><path class="cls-10" d="M3,48.57a23.33,23.33,0,0,1-.85-5.24C1.26,26.25,15.29,10.75,33.42,8.79S63,17.19,66.05,27.65c3.3,11.48-2.52,26-23,32.5C34,63,21,64.4,12,59.55A17.61,17.61,0,0,1,3,48.57ZM65.38,27.83C62.45,17.64,51.22,7.55,33.49,9.47S2,26.57,2.83,43.29c.37,7.19,3.6,12.52,9.44,15.65,8.88,4.75,21.61,3.4,30.58.55C62.88,53.12,68.6,39,65.38,27.83Z"/><path class="cls-11" d="M7.93,42.73c-1.52-5.25.13-11.59,4.4-17a26.25,26.25,0,0,1,22.24-9.91c9,.47,15.77,5.1,17.79,12.1a15.47,15.47,0,0,1-1.54,11.88c-3,5.36-9,9.52-16.84,11.7-7.35,2-14.67,1.68-19.57-1A12.79,12.79,0,0,1,7.93,42.73ZM51.69,28.15c-1.93-6.7-8.5-11.15-17.16-11.6A25.62,25.62,0,0,0,12.86,26.2C8.79,31.32,7.15,37.58,8.58,42.54A12.19,12.19,0,0,0,14.73,50c4.74,2.57,11.87,2.91,19.05.92,7.68-2.14,13.52-6.18,16.43-11.38A14.79,14.79,0,0,0,51.69,28.15Z"/><path class="cls-12" d="M14.23,38.52c-.85-3,0-6.38,2.37-9.4a18,18,0,0,1,14.65-6.69c5.62.21,9.84,2.89,11,7,1.34,4.64-1.41,11.08-10.6,14.21C25.16,45.87,17,45.14,14.54,39.41,14.43,39.12,14.32,38.82,14.23,38.52Zm27.39-8.88c-1.1-3.83-5.08-6.33-10.39-6.52a17.31,17.31,0,0,0-14.09,6.43c-2.44,3.13-3.18,6.71-2,9.6,2.24,5.35,10.06,6,16.27,3.86C40.22,40,42.87,34,41.62,29.64Z"/><path class="cls-13" d="M19.66,36a3.39,3.39,0,0,1-.11-.43,6.13,6.13,0,0,1,2-5.3,11,11,0,0,1,9.48-3c2.5.46,4.24,1.79,4.78,3.66.62,2.14-.46,4.47-2.87,6.25a11.8,11.8,0,0,1-10.12,1.92A4.63,4.63,0,0,1,19.66,36ZM35.2,31.06c-.46-1.61-2-2.77-4.25-3.17a10.27,10.27,0,0,0-8.87,2.83,5.45,5.45,0,0,0-1.85,4.69,4,4,0,0,0,2.85,3c2.79,1,6.78.18,9.5-1.83C34.75,35,35.73,32.91,35.2,31.06Z"/><path class="cls-14" d="M23.51,34.46a1.13,1.13,0,0,1,0-.15,2.91,2.91,0,0,1,.8-2.49A5.7,5.7,0,0,1,29.72,30a3,3,0,0,1,2.4,1.87,2.63,2.63,0,0,1-.9,2.6,6.34,6.34,0,0,1-5.67,1.69A2.54,2.54,0,0,1,23.51,34.46Zm8-2.38a2.33,2.33,0,0,0-1.89-1.39,5,5,0,0,0-4.78,1.58,2.28,2.28,0,0,0-.65,1.89,1.94,1.94,0,0,0,1.57,1.35,5.62,5.62,0,0,0,5-1.5A2.07,2.07,0,0,0,31.46,32.08Z"/><path class="cls-15" d="M26,33.6a1.16,1.16,0,0,1,.16-.94,2.59,2.59,0,0,1,3-.94,1.23,1.23,0,0,1,.69.76c.17.58-.18,1.19-.93,1.63a2.6,2.6,0,0,1-2.2.25A1.19,1.19,0,0,1,26,33.6Zm3.22-.92a.59.59,0,0,0-.33-.33,1.75,1.75,0,0,0-1.39.07,1.57,1.57,0,0,0-.74.6.47.47,0,0,0-.09.4.6.6,0,0,0,.34.32,1.94,1.94,0,0,0,1.6-.21C29,33.25,29.25,32.94,29.18,32.68Z"/></g></g></svg>