<svg xmlns="http://www.w3.org/2000/svg" viewBox="0 0 586.37 324.11"><defs><style>.cls-1{fill:#1d1d1b;}</style></defs><g id="Layer_2" data-name="Layer 2"><g id="Layer_1-2" data-name="Layer 1"><path class="cls-1" d="M103,103.88l-.11.06-.08.1c-.48.64-1.05,1.48-1.69,2.49a9.77,9.77,0,0,0-1.34,3.09,2.23,2.23,0,0,0,1.22,2.65,6.24,6.24,0,0,0,4.56-.15,25.66,25.66,0,0,0,5.59-2.81,38.62,38.62,0,0,0,3.52-2.58c1.13-.92,2.47-2.08,4-3.48l.06,0c0,.11-.07.24-.12.4-1.89,5.67-1.39,9.61,1.49,11.74a7.16,7.16,0,0,0,4.08,1.09h0c3.06-.13,7.42-2,13.33-5.61,5.64-3.47,12.2-7.9,19.5-13.15a3.83,3.83,0,0,0,1.12,1.07,16,16,0,0,0,3.87,1.81,15.26,15.26,0,0,1,2.88,1.25,1.49,1.49,0,0,1,.91,1.45,3.91,3.91,0,0,1-.75,1.44,24.34,24.34,0,0,1-1.75,2.12l-.3.31c-.51.56-1,1.08-1.48,1.56-1,1-2,2.18-3,3.49a15.14,15.14,0,0,0-2.35,4l0,.19c-.63,1.8-.48,3.26.45,4.34a4,4,0,0,0,3.22,1.28c2.33,0,5.8-1.18,10.63-3.6a265.44,265.44,0,0,0,23.71-15c2.4-1.61,4.91-3.29,7.49-5a5.74,5.74,0,0,0,1.09,3.78,4.35,4.35,0,0,0-1.33,1c-1.43,1.63-2.69,3.18-3.72,4.6-2.79,4-3.66,6.9-2.67,9a3.57,3.57,0,0,0,3.41,1.9,5.46,5.46,0,0,0,.82-.06c4.4-.85,9.19-4.76,14.24-11.61l.25,0v-.36a1.45,1.45,0,0,1,.36-.33,1.55,1.55,0,0,1,.87-.18h1.67a43.36,43.36,0,0,0,14.28-2.73,69.8,69.8,0,0,0,10.62-4.75c-3.32,5.28-6.22,10.06-8.66,14.3-9.11,15.83-11.56,25-7.5,28.05a5.15,5.15,0,0,0,3.3,1h.31c2.09,0,5.3-1.26,9.8-3.86s11.12-7.31,19.39-13.84c7-5.56,15.91-13.05,26.39-22.3-1.26,1.81-2.45,3.58-3.54,5.27a29.8,29.8,0,0,0-3.51,7c-.68,2.19-.42,3.93.81,5.23A2.71,2.71,0,0,0,280,120a12.83,12.83,0,0,0,4.64-1.23,91.23,91.23,0,0,0,10.79-5.66c4.13-2.47,8.4-5.16,12.69-8q4.17-2.75,7.9-5.27c-1,1.58-2,3.19-3,4.8-1.9,3.09-3.51,5.77-4.78,8s-1.92,3.35-2,3.51c-.46,1-1,2.29-.23,2.92a1.54,1.54,0,0,0,1,.34,3.81,3.81,0,0,0,1.34-.3,9.64,9.64,0,0,0,2.67-1.64c1-.81,3.09-2.73,6.36-5.87s6.74-6.4,10.48-9.82A93.49,93.49,0,0,1,337,94.18a8.81,8.81,0,0,1,.87-.43,1,1,0,0,1,.32-.11v0A16.81,16.81,0,0,1,336.9,97c-.35.74-.68,1.49-1,2.24-1.59,4.25-2.2,7.92-1.83,10.92a8.07,8.07,0,0,0,4.14,6.57c3.52,1.73,8.74.76,15.52-2.88A129.73,129.73,0,0,0,371,102.36c-.42.53-.83,1-1.18,1.52l-.11.06-.07.09c-.49.65-1.06,1.49-1.7,2.5a9.67,9.67,0,0,0-1.34,3.09,2.24,2.24,0,0,0,1.22,2.65,6.24,6.24,0,0,0,4.56-.15,25.72,25.72,0,0,0,5.6-2.81,39.93,39.93,0,0,0,3.51-2.58c1.13-.92,2.47-2.09,4-3.48l.06,0-.12.4c-1.89,5.67-1.39,9.61,1.49,11.74a7.16,7.16,0,0,0,4.08,1.09h0c3.05-.13,7.41-2,13.32-5.61s12.51-8.1,20-13.52a3.39,3.39,0,0,0,.92-.91c.35-.59.07-.91-.07-1a1.22,1.22,0,0,0-1.39,0c-7.78,5.49-14.22,9.7-19.13,12.53S396,112.44,393.43,113c-2.36.52-3.87.29-4.48-.69l-.06-.08c-.2-.21-.6-1.08.15-4.46.58-2.61,2.27-6.71,5-12.09l.08-.11a7.37,7.37,0,0,0,.72-1.75,1.56,1.56,0,0,0-.69-1.77l-.07,0h0a.5.5,0,0,1,0-.21,8.73,8.73,0,0,0,.17-3.26,3.35,3.35,0,0,0-1.69-2.48c-1.83-.88-4-.4-6.61,1.41a53.82,53.82,0,0,0-7.67,6.79L377,95.6l-1.67,1.25c-3.82,3-7.86,6-12,9a75.14,75.14,0,0,1-12,7c-3.81,1.74-7.27,2.42-10.26,2a2.73,2.73,0,0,1-2.08-2.5,14.76,14.76,0,0,1,.29-5.7,30,30,0,0,1,2.28-6.61c2-4,3.13-6.73,3.4-8.39A2.94,2.94,0,0,0,342.59,88c-1.17-.27-2.94.54-5.59,2.55-2.46,1.87-5.3,4.29-8.44,7.17s-6.26,5.81-9.23,8.66-5.32,5.08-7.26,6.83l-.18.15c.09-.14.18-.28.28-.42,2.56-3.36,5.15-6.57,7.69-9.56,2.11-2.46,3.49-4.17,4.13-5.11a3.41,3.41,0,0,0,.65-2.52,2.29,2.29,0,0,0-1.45-1.45,3.54,3.54,0,0,0-2.26-.24,3.32,3.32,0,0,0-2,1.42l0,0c-12.82,8.64-22.26,14.55-28.06,17.58-7.52,3.92-8.93,3.46-9.19,3.23-.31-1.19.26-2.9,1.69-5.1a59.78,59.78,0,0,1,5.4-7c2.05-2.31,3.67-4.07,4.79-5.23l.83-.83c.29-.31.55-.59.77-.81a4.45,4.45,0,0,0,1-1.17,1.61,1.61,0,0,0-.06-1.65,2.4,2.4,0,0,0-2.09-.82,9.36,9.36,0,0,0-2.78.38,4,4,0,0,0-2.15,1.26v0l-.05,0c-4.77,4.26-10.36,9.07-16.61,14.3s-12.6,10.21-18.83,14.83a132,132,0,0,1-16.42,10.64c-4.33,2.28-7.31,3-8.85,2l0-.27H228a3.06,3.06,0,0,1-.26-.41,3.27,3.27,0,0,1-.22-1.46,13.42,13.42,0,0,1,.58-3.24,41.25,41.25,0,0,1,2.13-5.63c1-2.31,2.49-5.22,4.34-8.64s4.26-7.55,7.15-12.29c3.43-5.47,9.15-14,17-25.25s16.14-23.14,24.43-34.86l10-13.94,5.51-7.77C301,20,303.13,17,304.84,14.69c2.84-3.85,4.81-6.73,5.88-8.54,1.15-2,1.47-3.46,1-4.55A2.55,2.55,0,0,0,310.2.23a4,4,0,0,0-2.29-.12,4.47,4.47,0,0,0-2.15,1.22,5.09,5.09,0,0,0-1.17,1.73,2.15,2.15,0,0,0-.17,1.21c-1.5,3.13-5,8.7-10.36,16.55-3.42,4.85-7.52,10.83-12.17,17.78l-4.08,6c-.31.48-.64.95-1,1.44l-.38.57C263,65.74,252,82,243.48,95.35a50.12,50.12,0,0,1-6,3.31,61.18,61.18,0,0,1-9.44,3.52,40.75,40.75,0,0,1-11.33,1.56c-.37,0-.72,0-1.1,0l0-.07a41.18,41.18,0,0,0,4.48-8.93c.73-2.36.88-4.13.45-5.41a4.11,4.11,0,0,0-2.24-2.67c-2.07-.89-4.58-.64-7.43.75a19.91,19.91,0,0,0-7,5.59,14.07,14.07,0,0,0-1.5,2.45c-12.84,8.59-23,15-30.3,19-8.9,5-11.51,4.45-12.27,3.61a3.19,3.19,0,0,1,1-1.84,42.08,42.08,0,0,1,3.15-3.19,57,57,0,0,0,4.32-4.5,8.84,8.84,0,0,0,2.35-4.76c.11-2.66-1.68-4.93-5.31-6.75-2.66-1.26-3.06-1.83-3.11-2a2.35,2.35,0,0,1,.94-1.35,11.54,11.54,0,0,1,2.26-1.25c.63-.29,1.32-.65,2-1.06l.14-.07a4.72,4.72,0,0,0,2-2.8,5.49,5.49,0,0,0,.1-3,2.37,2.37,0,0,0-1.72-1.42,3.72,3.72,0,0,0-2.47.4l-.11.06c-5.66,3.14-8.68,6.69-9,10.56a4.18,4.18,0,0,0,0,.71c-7.51,5.29-13.75,9.37-18.54,12.12s-8.65,4.51-11.19,5.07c-2.36.52-3.87.29-4.48-.69l-.06-.08c-.2-.21-.6-1.08.15-4.46.58-2.61,2.27-6.7,5-12.09l.08-.11a7.37,7.37,0,0,0,.72-1.75,1.56,1.56,0,0,0-.69-1.77l-.08,0a.5.5,0,0,1,0-.21,8.73,8.73,0,0,0,.17-3.26,3.38,3.38,0,0,0-1.69-2.48c-1.83-.88-4.06-.41-6.62,1.41a54.33,54.33,0,0,0-7.66,6.79l-1.37,1.41C94.62,107,80.23,116.9,67.3,125a313.62,313.62,0,0,1-33,18.53c-7.11,3.22-13.36,5.18-18.59,5.81s-8.48,0-10-1.88c-1.7-2.67-1.35-7.63,1-14.76a94.86,94.86,0,0,1,12.08-23.16A265.86,265.86,0,0,1,42.08,81.27,344.85,344.85,0,0,1,69.93,54.69,254.06,254.06,0,0,1,91.11,38.41c5.59-3.71,10-6.1,13-7.1,2.85-.94,4.72-1,5.42-.16s1.08,2.65-.28,7.16a68.58,68.58,0,0,1-6.06,13.34A116,116,0,0,1,92.36,67.32l-.1.17c-.61.72-1.22,1.44-1.88,2.2a4.47,4.47,0,0,1-.51.59c-.77.93-1.5,1.84-2.19,2.72a13.24,13.24,0,0,0-1.52,2.34,1.87,1.87,0,0,0-.14,1,.92.92,0,0,0,1,.79h.33a2.68,2.68,0,0,0,.73-.29,7,7,0,0,0,.93-.67,141.63,141.63,0,0,1,14.58-10.34,58.27,58.27,0,0,1,9.47-5,3.56,3.56,0,0,0,3.29-2,2.59,2.59,0,0,0,.24-2.33A2.56,2.56,0,0,0,114.73,55c-.57,0-1.81.19-5.66,2.79-2.76,1.87-5.89,4.18-9.3,6.88-2.34,1.85-4.58,3.66-6.68,5.41,4.33-5.41,8.33-10.84,11.93-16.19a105.28,105.28,0,0,0,9.39-16.52c2.13-4.94,2.43-8.26.92-10.15-1.35-1.77-3.86-2.51-7.44-2.19s-8.57,2.42-15.15,6.27S77.47,41.57,66.79,50.53a293.68,293.68,0,0,0-51.16,56.16c-2.08,3-4.26,6.46-6.49,10.28a100.15,100.15,0,0,0-5.9,11.82,41.74,41.74,0,0,0-3.13,11.4,13.13,13.13,0,0,0,2,9.15c2,2.71,5.3,4.08,9.79,4.08,5.82,0,13.89-2.35,24-7C45,142.19,56,135.86,68.59,127.63c10.43-6.82,22.07-14.93,34.67-24.12C103.17,103.64,103.07,103.76,103,103.88Zm15.58-4.34s0,.33-.77,1.23a45.13,45.13,0,0,1-7.25,5.85,17.85,17.85,0,0,1-6.31,2.83,2.07,2.07,0,0,1-.56,0,2,2,0,0,1,.37-.87c.31-.47.58-.84.8-1.12l.09-.15a55.24,55.24,0,0,1,5.46-5.93,76.17,76.17,0,0,1,6.67-5.74,12.09,12.09,0,0,1,3.69-2.17H121a2.87,2.87,0,0,1-.3,1,18.49,18.49,0,0,1-1.28,2.4l0,0a7.55,7.55,0,0,0-.7,2h-.17Zm93.23,3.72-.28,0-.39-.1h-.05a7.94,7.94,0,0,1-3.11-1.41,2.71,2.71,0,0,1-1-1.55,3.42,3.42,0,0,1,0-1.44l.07-.12v-.19a7,7,0,0,1,1.29-2.64,15.91,15.91,0,0,1,3.39-3.32,4.9,4.9,0,0,1,3.1-1.18c.41,0,.77.42,1.06,1.11a6.76,6.76,0,0,1-.06,3.7,24.77,24.77,0,0,1-3,6.76,1.58,1.58,0,0,1-.37.44c-.05,0-.22.08-.51,0h0Zm.08,0h0l-.05,0Zm-4.64,1.81h0a19.82,19.82,0,0,0,3.72.67l0,0a39.56,39.56,0,0,1-6.34,7.36c-2.16,1.94-4.14,2.75-5.87,2.38a2,2,0,0,0-.15-.15,1.93,1.93,0,0,1,.26-1.83,12,12,0,0,1,1.93-2.53,28,28,0,0,1,2.29-2.13l.72-.62.15-.12c.28-.19.54-.38.8-.58l.17-.09a15.82,15.82,0,0,0,1.8-1.51A2.51,2.51,0,0,0,207.23,105.12Zm178.12-5.58s0,.33-.77,1.23a45.13,45.13,0,0,1-7.25,5.85,17.85,17.85,0,0,1-6.31,2.83,2.07,2.07,0,0,1-.56,0,2,2,0,0,1,.37-.87c.31-.47.58-.84.8-1.12l.1-.15a54.09,54.09,0,0,1,5.45-5.93,77.66,77.66,0,0,1,6.67-5.74,12.21,12.21,0,0,1,3.69-2.17h.23a2.87,2.87,0,0,1-.3,1,16.34,16.34,0,0,1-1.28,2.4l0,0a7.55,7.55,0,0,0-.7,2h-.17Z"/><path class="cls-1" d="M301.77,82.38a7.21,7.21,0,0,0-1.55-.15,3.23,3.23,0,0,0-2.28.87,4.69,4.69,0,0,0-1.27,2.18,4.09,4.09,0,0,1-.45,1,6,6,0,0,0-.47,1.37.92.92,0,0,0,.16.74,1.23,1.23,0,0,0,.94.46,4,4,0,0,0,.71.06,7.77,7.77,0,0,0,2.44-.46,4.54,4.54,0,0,0,2.76-2.76,3.69,3.69,0,0,0,.21-2.24A1.6,1.6,0,0,0,301.77,82.38Z"/><path class="cls-1" d="M586.13,212.94a1.22,1.22,0,0,0-1.39,0c-7.78,5.5-14.21,9.71-19.12,12.53S557,230,554.43,230.57c-2.36.52-3.87.29-4.48-.68l-.06-.08c-.2-.22-.6-1.09.15-4.46.58-2.62,2.26-6.71,5-12.1l.08-.11a7.37,7.37,0,0,0,.72-1.75,1.54,1.54,0,0,0-.69-1.76l-.08,0h0a.81.81,0,0,1,0-.22,8.69,8.69,0,0,0,.18-3.25,3.38,3.38,0,0,0-1.69-2.49c-1.83-.88-4.06-.4-6.62,1.41a55,55,0,0,0-7.66,6.79L538.09,213c-12,5.71-23.78,11.95-35,18.56l-.45,0v.22a5.26,5.26,0,0,1-1.76.68,1.48,1.48,0,0,1-1.41-.61,1.84,1.84,0,0,0-.3-.24,15.32,15.32,0,0,0-7.41-3.44,26.37,26.37,0,0,0-8.44-.19,37.62,37.62,0,0,0-8.91,2.84c-3.31,1.45-6.29,2.83-8.87,4.11-1,.52-1.83.92-2.52,1.23l-.07,0,.31-.28c.66-.7,1.49-1.55,2.48-2.53,2.16-2.16,4.59-4.7,7.25-7.54a62.11,62.11,0,0,0,6.64-8.36c1.84-2.84,2.46-5.11,1.89-7a2.27,2.27,0,0,0-1.52-1.48,5.84,5.84,0,0,0-2.95.21,4.35,4.35,0,0,0-2.3,1.39,4.41,4.41,0,0,0-1,2.05c0,.15,0,.28,0,.42A185.13,185.13,0,0,1,452.36,224c-6.33,2.61-11.32,3.93-14.81,3.93a8,8,0,0,1-4.43-1.19,3.78,3.78,0,0,1-1.73-3.42,15.07,15.07,0,0,1,3.54-6.6,2.64,2.64,0,0,0,.29-.34,10.92,10.92,0,0,1,2.35-1.86,5.36,5.36,0,0,1,1.67-.69,79.2,79.2,0,0,0,11.14-3.33,23.32,23.32,0,0,0,4.92-2.5,7.23,7.23,0,0,0,2.85-3.32,3.24,3.24,0,0,0-.19-2.73,4,4,0,0,0-1.93-1.68c-3.27-1.22-8.17.59-15,5.53-.9.69-1.84,1.42-2.81,2.2l-.46.45a42.57,42.57,0,0,0-4.68,4.62c-11.11,6.48-20.2,11.48-27,14.84a105.92,105.92,0,0,1-15.25,6.54c-4.41,1.28-5.32.8-5.51.62-.81-.76-.93-2.23-.34-4.37a72.37,72.37,0,0,1,2.86-8.17c1-2.58,2-5.27,2.89-8,.14-.51.59-2-.36-2.51a2.22,2.22,0,0,0-1.94.14,6.61,6.61,0,0,0-1.65,1.06c-6.93,6.86-12.67,12.17-17.07,15.78a64.89,64.89,0,0,1-10.24,7.27c-2.88,1.47-4.21,1.57-4.81,1.4a1.53,1.53,0,0,1-1.29-1.39c-.12-1.27.65-3.5,2.29-6.64s3.65-6.59,5.83-10,4-6.17,5.44-8.17a53.33,53.33,0,0,0,4.34-6.61,4.18,4.18,0,0,0,.28-3.92,2.79,2.79,0,0,0-2.53-1.19,4.9,4.9,0,0,0-2.92.9,2.8,2.8,0,0,0-.89,1.41,5.24,5.24,0,0,0-.19,1.4v0c-.52,1-1.61,2.75-3.22,5.31l-.58.86c-.71,1.08-1.44,2.23-2.19,3.42-7.83,7.77-14.17,13.08-18.84,15.78s-7.84,3.87-9.54,3.54c-1-.21-1.66-1.18-2.12-2.87a28.24,28.24,0,0,1-.89-6,39.07,39.07,0,0,1,0-4.67A2.52,2.52,0,0,0,327,217a2.49,2.49,0,0,0-1.94-.76h0c-2.2.06-4.72,1.07-7.48,3a68.76,68.76,0,0,0-8.28,6.83c-2.78,2.65-5.38,5.25-7.73,7.73l-1.91,2c1.95-2.88,4.35-6.35,7.14-10.34.73-1.08,1.48-2.17,2.25-3.25a83.21,83.21,0,0,1,6.47-8.26,49.3,49.3,0,0,1,3.84-3.9h.08l.15-.15a331,331,0,0,0,25.76-22.94l.25-.24h0c14.12-14.55,24.9-27.41,32-38.24,7.31-11.1,10.32-18.52,9.21-22.68-.67-2.1-2.32-3.11-4.76-2.93-5.42.76-13.46,7.83-24.57,21.62-10.88,13.51-23.68,32-38,55.08-2.71,4.31-5.64,8.92-8.75,13.74l-1.63,1.22c-3.83,3-7.86,6-12,9a73.24,73.24,0,0,1-12,7c-3.81,1.74-7.27,2.42-10.25,2a2.7,2.7,0,0,1-2.08-2.5,14.55,14.55,0,0,1,.28-5.7,29.77,29.77,0,0,1,2.28-6.61c2-4,3.14-6.72,3.4-8.39a2.94,2.94,0,0,0-2.35-3.63c-1.17-.27-2.94.55-5.58,2.56-2.46,1.86-5.3,4.27-8.45,7.16s-6.24,5.8-9.23,8.66-5.3,5.07-7.26,6.83l-.18.16c.09-.14.18-.29.28-.43,2.56-3.35,5.15-6.57,7.7-9.56,2.13-2.5,3.48-4.16,4.12-5.11a3.39,3.39,0,0,0,.65-2.52,2.23,2.23,0,0,0-1.45-1.44,3.52,3.52,0,0,0-2.25-.25,3.34,3.34,0,0,0-2,1.41c-7.71,5.44-14.09,9.62-19,12.42s-8.64,4.51-11.19,5.07c-2.36.52-3.86.29-4.47-.68l-.06-.08c-.21-.22-.6-1.09.15-4.46.58-2.62,2.26-6.71,5-12.1l.08-.11a7.37,7.37,0,0,0,.72-1.75,1.55,1.55,0,0,0-.7-1.76l-.07,0h0a.81.81,0,0,1,0-.22,8.69,8.69,0,0,0,.18-3.25,3.38,3.38,0,0,0-1.69-2.49c-1.83-.88-4.06-.4-6.62,1.41a53.86,53.86,0,0,0-7.66,6.79c-.36.36-.7.72-1,1.07h0C200.11,215.27,190.56,219,178,224s-25.24,10.43-37.83,16.18l-.17.06a3.63,3.63,0,0,1-1.22.38,1.89,1.89,0,0,1-1.3-.52c-2-1.55-4.16-3.18-6.54-4.86s-4.39-3.07-5.94-4.12L123.38,230l-3.94-3a120.29,120.29,0,0,1-9.61-7.63,26.59,26.59,0,0,1-6.52-8.42,14.71,14.71,0,0,1-.69-10.13c1.5-5,6.09-10.63,13.64-16.84s17.77-12.81,30.2-19.47a172.89,172.89,0,0,1,25.63-11.18,118.68,118.68,0,0,1,22.25-5.44c11.38-1.34,18.45.39,21,5.14,1.11,2.19.93,5.36-.55,9.43s-4.89,9.25-10.06,15.2-12.81,12.86-22.64,20.51A155.3,155.3,0,0,1,163,211c-5.19,2.81-9.28,4.59-12.17,5.3-3.73.91-4.67.51-4.87.32-.57-.64-.7-2.29,1.9-6.55A100.71,100.71,0,0,1,158.2,196.7c2.85-3.24,6.23-6.72,10.05-10.37a108.27,108.27,0,0,1,11.45-9.58c3.74-2.69,7-4.29,9.72-4.76a2,2,0,0,0,1.41-1.55,6.91,6.91,0,0,0,.24-2.35,4.85,4.85,0,0,0-.49-2,2.45,2.45,0,0,0-1.93-1.13,3.83,3.83,0,0,0-2.46.71,147,147,0,0,0-19.69,16.66,157.42,157.42,0,0,0-16.78,19.39c-4.62,6.44-6.93,11.35-7.06,15.06,0,1.54.84,3.37,4.56,3.37h.14c2.86,0,7.18-1.49,13.2-4.46s13.63-7.79,23-14.52a195.17,195.17,0,0,0,20.08-16.31,77.56,77.56,0,0,0,12.2-14.68c3.33-5.23,5.38-9.54,6.08-12.81s.52-6-.55-8c-3.51-6.85-12.38-9.47-26.39-7.79-14.43,2-31.32,8.23-50.19,18.6-14.09,7.74-25.08,15.07-32.65,21.77s-12.33,13.29-14,19.46a16.28,16.28,0,0,0,.77,11,31.22,31.22,0,0,0,6.86,9.64,79,79,0,0,0,10.06,8.29c3.63,2.54,7.19,4.89,10.57,7,3.06,1.87,5.7,3.59,7.81,5.1a.38.38,0,0,1,.19.3s-.07.18-.63.48c-4.36,2.07-8.38,4.1-12,6.07l-.25.17a113.68,113.68,0,0,0-13.19,7.92c-2.84,2.13-4.23,4.21-4.13,6.2a3.77,3.77,0,0,0,1.63,3.07,8.81,8.81,0,0,0,3.61,1.33,28.47,28.47,0,0,0,4.56.34c.71,0,1.43,0,2.17-.05a58.66,58.66,0,0,0,14.17-2,27.52,27.52,0,0,0,8.51-3.94,14.33,14.33,0,0,0,4.24-4.64,10.6,10.6,0,0,0,1.32-7.11,15.16,15.16,0,0,0-3.3-6.87.28.28,0,0,1-.07-.28c0-.05.11-.25.53-.52,12.11-5.6,24.45-11,36.68-16.14,10.07-4.21,18.31-7.59,24.6-10.1-1.57,1.77-2.89,3.37-3.93,4.78l-.11,0-.07.1c-.48.64-1.05,1.48-1.7,2.5a9.68,9.68,0,0,0-1.33,3.08,2.22,2.22,0,0,0,1.21,2.65,6.24,6.24,0,0,0,4.56-.15,25.72,25.72,0,0,0,5.6-2.81,39.92,39.92,0,0,0,3.52-2.57c1.13-.92,2.46-2.09,4-3.49l0,0a3.72,3.72,0,0,1-.11.41c-1.89,5.66-1.4,9.61,1.48,11.73a7.12,7.12,0,0,0,4.09,1.09h0c3.06-.13,7.41-2,13.32-5.6,4.83-3,10.33-6.65,16.4-10.94q-1.53,2.34-3,4.74c-1.88,3.06-3.49,5.74-4.77,8s-1.93,3.36-2,3.51c-.46,1-1,2.29-.23,2.93a1.53,1.53,0,0,0,1,.33,3.81,3.81,0,0,0,1.34-.3,9.84,9.84,0,0,0,2.67-1.63c1-.82,3.09-2.74,6.36-5.88s6.74-6.39,10.48-9.81a94.71,94.71,0,0,1,9.11-7.55,8.83,8.83,0,0,1,.87-.44,2,2,0,0,1,.32-.11.06.06,0,0,1,0,0,16.5,16.5,0,0,1-1.25,3.35c-.35.73-.68,1.49-1,2.25-1.59,4.24-2.2,7.91-1.82,10.92a8.07,8.07,0,0,0,4.13,6.57c3.52,1.73,8.75.75,15.53-2.89a141.74,141.74,0,0,0,20.47-14.11c-.65,1-1.32,2-2,3.07q-7.33,11.29-11.64,17.9c-1.63,2.46-2.51,3.78-2.66,4a4,4,0,0,0-.51,1.52,1.22,1.22,0,0,0,.36,1.05,1.38,1.38,0,0,0,.82.34h.24a1.5,1.5,0,0,0,.35,0h.19c.33-.07.85-.35,2.46-2,1.15-1.15,2.6-2.65,4.32-4.47,2.55-2.68,5.35-5.53,8.31-8.47a75,75,0,0,1,8.23-7.21c2.23-1.65,3.94-2.31,4.94-1.94a9,9,0,0,1,.42,2.57c.13,1.34.34,2.85.63,4.47a13.89,13.89,0,0,0,1.59,4.5,5.66,5.66,0,0,0,3.59,2.73c3.6.76,8.21-.74,13.68-4.46a111.3,111.3,0,0,0,13.71-11.38A91.82,91.82,0,0,0,349.16,232c-.94,2.41-1.26,4.22-1,5.53a4,4,0,0,0,1.84,2.82,6.94,6.94,0,0,0,2.66.9,9.42,9.42,0,0,0,1.2.08c3.14,0,6.74-1.45,10.75-4.31,4.44-3.18,10.33-8.43,17.5-15.6l.66-.62-.19.56c-.47,1.25-.94,2.41-1.38,3.48a39.2,39.2,0,0,0-2.52,7.28,6,6,0,0,0,1.35,5.6c2,1.88,5.71,1.81,11.29-.21a136.14,136.14,0,0,0,19.21-9.13c6.24-3.48,12.81-7.29,19.56-11.33-.37.59-.73,1.19-1.06,1.83-1.82,3.67-2.11,6.81-.83,9.36,1.14,1.73,3.11,2.69,5.84,2.86.38,0,.77,0,1.19,0,3.94,0,9.33-1.41,16.05-4.2a160.36,160.36,0,0,0,23-12.06,34.85,34.85,0,0,1-4.12,6.82c-1.87,2.49-3.81,4.92-5.78,7.23-2.11,2.5-3.82,4.69-5.1,6.51-.92,1.31-2,3.18-1,4.31.56.47,1.48.5,2.8.07,1.15-.37,2.59-.94,4.29-1.67a83,83,0,0,1,8.43-3.17,33.88,33.88,0,0,1,10.1-1.58,21.22,21.22,0,0,1,4.7.68,13.63,13.63,0,0,1,5.06,2.38s.11.12,0,.44c-.05.14-.28.54-1.45,1.28-4,2.52-8.07,5.15-12,7.82-10.7,7.22-20.79,14.75-30,22.38a255,255,0,0,0-23.74,22c-6.55,7-11.22,13.24-13.9,18.53-2.76,5.46-2.85,9.56-.25,12.2a12,12,0,0,0,8.3,2.93,21,21,0,0,0,4.36-.49c5.21-1.11,11.07-3.68,17.43-7.64a142.28,142.28,0,0,0,19.4-14.73,187.33,187.33,0,0,0,18.45-19,141.77,141.77,0,0,0,14.5-20.46,63,63,0,0,0,7.61-19.18,15.08,15.08,0,0,0,.15-4.88l0-.14a4.73,4.73,0,0,1-.14-.66,1.62,1.62,0,0,1,.22-1.22,5.63,5.63,0,0,1,2-1.77c9.37-5.62,19.06-10.91,28.88-15.8-1,1.2-1.92,2.32-2.66,3.33l-.11,0-.08.1c-.48.64-1.05,1.48-1.7,2.5a9.91,9.91,0,0,0-1.33,3.08,2.22,2.22,0,0,0,1.21,2.65,6.24,6.24,0,0,0,4.56-.15,25.5,25.5,0,0,0,5.6-2.81,39.92,39.92,0,0,0,3.52-2.57c1.13-.92,2.47-2.09,4-3.49l.06,0c0,.11-.07.25-.12.41-1.89,5.66-1.39,9.61,1.49,11.73a7.06,7.06,0,0,0,4.08,1.09h0c3.06-.13,7.42-2,13.33-5.6s12.5-8.11,20-13.52a3.89,3.89,0,0,0,.92-.91C586.55,213.37,586.27,213.05,586.13,212.94ZM344,185.18c-7.47,7.35-15.9,14.91-25.09,22.5,1.57-2.37,2.95-4.5,4.11-6.35,12-19,22.32-34.06,30.76-44.68s15.1-18.16,19.85-22.41c6.13-5.5,7.9-6.35,8.43-6.38,0,0,.47.46-.25,4-.62,3.1-2.63,7.48-6,13-3.65,5.84-8.27,12.39-13.72,19.46A241.08,241.08,0,0,1,344,185.18Zm202.35,31.93s0,.33-.77,1.23a45.2,45.2,0,0,1-7.25,5.86A17.8,17.8,0,0,1,532,227a1.7,1.7,0,0,1-.56,0,1.9,1.9,0,0,1,.37-.87c.31-.47.58-.84.79-1.12l.1-.14a54.29,54.29,0,0,1,5.46-5.94,75.67,75.67,0,0,1,6.66-5.73,12.1,12.1,0,0,1,3.7-2.18h.23a2.83,2.83,0,0,1-.3,1,18.49,18.49,0,0,1-1.28,2.4l0,0a7.37,7.37,0,0,0-.7,2h-.17Zm-50.17,24.83a9.41,9.41,0,0,1-.37,2.45,81.4,81.4,0,0,1-10.65,22.79,154.9,154.9,0,0,1-17.62,22.18,156.85,156.85,0,0,1-20.3,18.11c-6.81,5-13.09,8.59-18.65,10.59s-9.6,1.89-12.38-.18c-1.89-1.68-1.65-4.82.72-9.35,2.48-4.73,6.83-10.46,12.93-17a252.47,252.47,0,0,1,22.48-21.07,351.47,351.47,0,0,1,29-21.79c4-2.68,8.07-5.35,12.16-7.95a2.93,2.93,0,0,1,2-.63C495.89,240.13,496.13,240.83,496.18,241.94Zm-48.33-34.48.16,0,.13-.08.5-.05v-.11a9.74,9.74,0,0,1,1.39-.32,1.53,1.53,0,0,1,.86.14l0,.09c0,.21-.25.62-1.2,1.16a22.61,22.61,0,0,1-4.2,1.81c-1.76.6-3.37,1.09-4.78,1.47a36.87,36.87,0,0,1,4.34-2.72A17.42,17.42,0,0,1,447.85,207.46Zm26.93,7.14h0Zm-260.25,2.51s0,.33-.76,1.23a46.1,46.1,0,0,1-7.25,5.86,17.87,17.87,0,0,1-6.31,2.82,1.7,1.7,0,0,1-.56,0,1.79,1.79,0,0,1,.37-.87c.31-.47.58-.84.79-1.12l.1-.14a54.29,54.29,0,0,1,5.46-5.94,75.67,75.67,0,0,1,6.66-5.73,12,12,0,0,1,3.7-2.18H217a2.83,2.83,0,0,1-.3,1,18.49,18.49,0,0,1-1.28,2.4l0,0a7.36,7.36,0,0,0-.69,2h-.18Zm-74.29,35.37a13.82,13.82,0,0,1-8.29,8.45,47.38,47.38,0,0,1-14.75,3.22c-4.89.34-6.64-.26-7.24-.82a1.48,1.48,0,0,1-.3-2.24c.25-.33.48-.6.69-.83l.18-.13c2-1.81,6-4.37,11.93-7.6,3.93-2.16,8.47-4.47,13.51-6.9,1.1-.59,1.66-.21,2,.18C140,248.12,140.79,250.36,140.24,252.48Zm334.49-37.85-.21.15h0Z"/></g></g></svg>