<svg xmlns="http://www.w3.org/2000/svg" xmlns:xlink="http://www.w3.org/1999/xlink" viewBox="0 0 125.6 125.82"><defs><style>.cls-1{fill:url(#linear-gradient);}.cls-2{fill:url(#linear-gradient-2);}.cls-3{fill:url(#linear-gradient-3);}.cls-4{fill:url(#linear-gradient-4);}.cls-5{fill:url(#linear-gradient-5);}.cls-6{fill:url(#linear-gradient-6);}.cls-7{fill:url(#linear-gradient-7);}.cls-8{fill:url(#linear-gradient-8);}.cls-9{fill:url(#linear-gradient-9);}.cls-10{fill:url(#linear-gradient-10);}.cls-11{fill:url(#linear-gradient-11);}.cls-12{fill:url(#linear-gradient-12);}.cls-13{fill:url(#linear-gradient-13);}.cls-14{fill:url(#linear-gradient-14);}.cls-15{fill:url(#linear-gradient-15);}</style><linearGradient id="linear-gradient" x1="-147.07" y1="840.66" x2="74.83" y2="979.21" gradientTransform="matrix(0.28, 0.96, 0.96, -0.28, -806.38, 357.78)" gradientUnits="userSpaceOnUse"><stop offset="0" stop-color="#0070ac"/><stop offset="0.4" stop-color="#a93a82"/><stop offset="1" stop-color="#e50d6a"/></linearGradient><linearGradient id="linear-gradient-2" x1="-149.26" y1="844.16" x2="72.64" y2="982.71" xlink:href="#linear-gradient"/><linearGradient id="linear-gradient-3" x1="-150.54" y1="846.2" x2="71.36" y2="984.76" xlink:href="#linear-gradient"/><linearGradient id="linear-gradient-4" x1="-151.21" y1="847.28" x2="70.69" y2="985.84" xlink:href="#linear-gradient"/><linearGradient id="linear-gradient-5" x1="-151.65" y1="847.98" x2="70.25" y2="986.54" xlink:href="#linear-gradient"/><linearGradient id="linear-gradient-6" x1="-152.02" y1="848.57" x2="69.88" y2="987.13" xlink:href="#linear-gradient"/><linearGradient id="linear-gradient-7" x1="-152.32" y1="849.06" x2="69.58" y2="987.62" xlink:href="#linear-gradient"/><linearGradient id="linear-gradient-8" x1="-152.45" y1="849.27" x2="69.45" y2="987.83" xlink:href="#linear-gradient"/><linearGradient id="linear-gradient-9" x1="-152.09" y1="848.68" x2="69.81" y2="987.24" xlink:href="#linear-gradient"/><linearGradient id="linear-gradient-10" x1="-151.16" y1="847.2" x2="70.74" y2="985.75" xlink:href="#linear-gradient"/><linearGradient id="linear-gradient-11" x1="-150.33" y1="845.87" x2="71.57" y2="984.43" xlink:href="#linear-gradient"/><linearGradient id="linear-gradient-12" x1="-150.05" y1="845.42" x2="71.85" y2="983.98" xlink:href="#linear-gradient"/><linearGradient id="linear-gradient-13" x1="-150.09" y1="845.48" x2="71.81" y2="984.04" xlink:href="#linear-gradient"/><linearGradient id="linear-gradient-14" x1="-150.24" y1="845.73" x2="71.66" y2="984.28" xlink:href="#linear-gradient"/><linearGradient id="linear-gradient-15" x1="-150.35" y1="845.91" x2="71.55" y2="984.47" xlink:href="#linear-gradient"/></defs><g id="Layer_2" data-name="Layer 2"><g id="Layer_1-2" data-name="Layer 1"><path class="cls-1" d="M48.88,99.34A31.49,31.49,0,0,1,48,95.49c-2-12.7,2.64-29.88,10.51-39.11,6.51-7.63,12.8-8.16,16.94-7.27C82.74,50.68,89,57.77,91.83,67.62A40.54,40.54,0,0,1,89.2,96.57c-5.26,10.82-15.28,17.53-25,16.7C56.85,112.63,51.24,107.56,48.88,99.34ZM90.93,67.88C88.23,58.5,82.09,51.5,75.29,50c-5.57-1.21-11.11,1.2-16,7C51.54,66,47,82.88,49,95.34a30.1,30.1,0,0,0,.82,3.74c2.25,7.82,7.56,12.66,14.55,13.26,9.28.8,18.93-5.7,24-16.17A39.56,39.56,0,0,0,90.93,67.88Z"/><path class="cls-2" d="M36,104.77C29.78,83,39.57,45.23,55.09,31.26,61,26,67.77,23.54,74.8,24.21c14.29,1.36,26.4,13.43,31.6,31.49a62.46,62.46,0,0,1-.34,36.3c-4.17,12.79-12.55,22.48-24.23,28-14.07,6.7-33.76,5.74-42.34-7.46A29.22,29.22,0,0,1,36,104.77ZM105.5,56c-5.09-17.68-16.89-29.49-30.79-30.82C68,24.5,61.38,26.85,55.71,32c-15,13.52-24.84,51.49-18.78,72.55a28.33,28.33,0,0,0,3.33,7.57c8.31,12.77,27.45,13.65,41.16,7.12C107,107,111.82,77.9,105.5,56Z"/><path class="cls-3" d="M28.07,105.61c-6.17-21.45,3.06-68.4,20.6-85.26a31.44,31.44,0,0,1,31.77-7.47c16,4.89,28.34,18.54,33.78,37.46,5.51,19.14,2.6,40-7.6,54.43-8.94,12.66-22.81,19.9-40.09,20.94a64.45,64.45,0,0,1-8.32-.06c-15.28-1.05-24.79-6.58-29.07-16.92A32.39,32.39,0,0,1,28.07,105.61Zm85.26-55C108,32,95.89,18.58,80.17,13.79A30.52,30.52,0,0,0,49.32,21C32,37.7,22.87,84.15,29,105.36a30.82,30.82,0,0,0,1.05,3c4.13,10,13.37,15.32,28.27,16.34a66.3,66.3,0,0,0,8.2.06c17-1,30.61-8.13,39.38-20.55C115.9,90,118.76,69.48,113.33,50.61Z"/><path class="cls-4" d="M22.36,103.87a52.62,52.62,0,0,1-1.8-12.53c-.68-17.46,5.31-59,22.23-75.94C51.63,6.56,64.15,3.19,77.16,6.17c19.63,4.48,35.12,20.25,41.43,42.17,5.21,18.12,3,37.38-5.84,51.54-7.82,12.47-20.34,20.5-36.22,23.24a94.89,94.89,0,0,1-27.62.14C33.35,120.93,25.66,115.31,22.36,103.87ZM117.7,48.59C111.49,27,96.26,11.48,77,7.07c-12.69-2.9-24.9.38-33.5,9C26.74,32.78,20.83,74,21.5,91.29a51.82,51.82,0,0,0,1.76,12.31c3.18,11,10.65,16.46,25.79,18.72a94,94,0,0,0,27.33-.13C92,119.5,104.29,111.61,112,99.37,120.7,85.44,122.84,66.46,117.7,48.59Z"/><path class="cls-5" d="M17.62,101.05C16,95.52,15.47,88.46,15.91,79.46c.85-17.25,6.29-50.54,21.3-65.89,9-9.19,22.17-13.19,36.15-11,22.7,3.61,41.08,20.72,48,44.66,7.85,27.27-.91,60.29-32.85,70.62-12,3.9-29.2,4-40.24,2.81C32.35,119.05,21.69,115.19,17.62,101.05ZM120.43,47.52c-6.79-23.58-24.88-40.44-47.21-44C59.54,1.35,46.66,5.25,37.88,14.23c-14.82,15.15-20.19,48.16-21,65.28-.44,8.89.11,15.86,1.67,21.28,3.92,13.63,14.32,17.37,29.83,19,10.94,1.13,27.95,1.09,39.85-2.77C119.56,106.84,128.15,74.36,120.43,47.52Z"/><path class="cls-6" d="M13,97a63,63,0,0,1-2-18c.17-15.47,4.7-49.08,20.68-65.49C40.91,4,54.58-.65,69.19.73,100,3.64,117.24,26.31,123.06,46.56c7.17,24.93,0,56.63-32.64,67.34-16.61,5.45-47.55,4.9-60.28.65C23.52,112.33,16.3,108.51,13,97Zm109.2-50.16c-5.74-20-22.7-42.29-53.06-45.15C54.78.31,41.39,4.86,32.35,14.14,16.58,30.34,12.1,63.64,11.94,79a61.85,61.85,0,0,0,1.94,17.72c3.2,11.13,10.17,14.81,16.56,17,12.6,4.21,43.24,4.74,59.7-.66C122.21,102.48,129.22,71.32,122.17,46.81Z"/><path class="cls-7" d="M8.07,91.14a56.88,56.88,0,0,1-1.94-13.2c-.73-16.55,4-47.08,20-63.4C35.6,4.85,49.57-.44,64.42,0c34,1.07,52.9,25,58.71,45.22,6.71,23.32-.48,51.87-31.66,63.09-16.19,5.82-55,8-70.5-.43C14.53,104.4,10.31,98.92,8.07,91.14ZM122.24,45.51C116.52,25.62,97.93,2,64.4,1,49.8.5,36.09,5.69,26.77,15.19,11,31.29,6.34,61.51,7.07,77.89a56,56,0,0,0,1.9,13c2.17,7.53,6.24,12.83,12.45,16.21,15.28,8.31,53.7,6.14,69.73.37C121.77,96.44,128.83,68.41,122.24,45.51Z"/><path class="cls-8" d="M3.63,83.65A57.72,57.72,0,0,1,1.82,65.29c.76-19.2,7.86-37.37,19-48.6C33,4.34,52.2-1.44,70.82,1.61c23.74,3.88,42.31,19.57,48.46,40.94a47.38,47.38,0,0,1-2,32.7c-5,10.94-14.31,19.57-27,25-18,7.63-54.26,10.2-71,2.33C11.44,98.85,6.18,92.5,3.63,83.65ZM118.39,42.81c-6-21-24.33-36.46-47.72-40.28-18.33-3-37.19,2.68-49.21,14.82-11,11.07-18,29-18.71,48A56.7,56.7,0,0,0,4.53,83.39C7,92,12.09,98.12,19.66,101.68c16.24,7.64,52.8,5.06,70.23-2.34C119.34,86.84,123.64,61.08,118.39,42.81Z"/><path class="cls-9" d="M1.65,75.08C-.9,66.23-.48,55.05,2.8,44.4,11,17.7,35.19,1.69,62.94,4.56c22,2.28,39.78,15.89,45.18,34.67a39.26,39.26,0,0,1-5,33.12c-6.33,9.49-20,21.52-49,24.87-13,1.5-36.45,2-47.19-11.62A30.39,30.39,0,0,1,1.65,75.08ZM107.22,39.5c-5.3-18.41-22.72-31.76-44.38-34C35.55,2.67,11.78,18.42,3.69,44.68.46,55.16,0,66.15,2.54,74.82A29.57,29.57,0,0,0,7.63,85C18.09,98.29,41.16,97.79,54,96.3,82.65,93,96.08,81.17,102.29,71.84A38.25,38.25,0,0,0,107.22,39.5Z"/><path class="cls-10" d="M4.08,66.12A31.92,31.92,0,0,1,2.93,59C1.71,35.74,20.81,14.64,45.5,12S85.82,23.4,89.92,37.64C94.42,53.28,86.49,73,58.63,81.89c-12.38,3.94-30,5.79-42.34-.81A24,24,0,0,1,4.08,66.12ZM89,37.89C85,24,69.73,10.28,45.59,12.9S2.66,36.18,3.85,58.94c.51,9.79,4.9,17,12.86,21.31,12.08,6.46,29.42,4.62,41.62.74C85.6,72.32,93.39,53.1,89,37.89Z"/><path class="cls-11" d="M10.79,58.18c-2.06-7.15.18-15.78,6-23.1A35.77,35.77,0,0,1,47.07,21.59c12.19.64,21.47,7,24.21,16.47a21.05,21.05,0,0,1-2.09,16.18c-4.08,7.3-12.22,13-22.93,15.93-10,2.78-20,2.29-26.64-1.33A17.44,17.44,0,0,1,10.79,58.18ZM70.37,38.32C67.75,29.2,58.8,23.15,47,22.53a34.87,34.87,0,0,0-29.5,13.14c-5.54,7-7.78,15.5-5.83,22.25A16.63,16.63,0,0,0,20.05,68c6.46,3.5,16.16,4,25.94,1.25,10.46-2.91,18.41-8.41,22.36-15.49A20.09,20.09,0,0,0,70.37,38.32Z"/><path class="cls-12" d="M19.37,52.44c-1.16-4,0-8.68,3.23-12.79a24.53,24.53,0,0,1,19.95-9.11c7.64.28,13.39,3.93,15,9.54,1.82,6.32-1.92,15.08-14.44,19.35-8.86,3-20,2-23.32-5.78C19.64,53.26,19.49,52.85,19.37,52.44ZM56.66,40.35c-1.5-5.21-6.92-8.61-14.14-8.87a23.56,23.56,0,0,0-19.18,8.75C20,44.49,19,49.36,20.66,53.3c3.06,7.28,13.7,8.14,22.15,5.25C54.76,54.48,58.37,46.26,56.66,40.35Z"/><path class="cls-13" d="M26.76,49a5.63,5.63,0,0,1-.14-.59c-.44-2.38.58-5,2.77-7.21A15,15,0,0,1,42.3,37.06c3.4.62,5.77,2.43,6.51,5,.84,2.91-.63,6.09-3.91,8.51-4,2.94-9.65,4-13.78,2.62A6.35,6.35,0,0,1,26.76,49Zm21.16-6.68c-.63-2.19-2.74-3.77-5.78-4.32a14,14,0,0,0-12.08,3.85c-2,2-2.9,4.31-2.52,6.39a5.45,5.45,0,0,0,3.88,4.07c3.8,1.29,9.23.24,12.93-2.49C47.31,47.61,48.64,44.81,47.92,42.29Z"/><path class="cls-14" d="M32,46.91a1.46,1.46,0,0,1-.05-.2A4,4,0,0,1,33,43.32a7.77,7.77,0,0,1,7.42-2.46,4.09,4.09,0,0,1,3.27,2.54c.23.78.2,2-1.23,3.54a8.59,8.59,0,0,1-7.72,2.3A3.48,3.48,0,0,1,32,46.91Zm10.83-3.24a3.18,3.18,0,0,0-2.57-1.89,6.8,6.8,0,0,0-6.51,2.16,3.08,3.08,0,0,0-.88,2.57A2.61,2.61,0,0,0,35,48.34a7.62,7.62,0,0,0,6.82-2A2.81,2.81,0,0,0,42.83,43.67Z"/><path class="cls-15" d="M35.34,45.75a1.6,1.6,0,0,1,.22-1.29A3.17,3.17,0,0,1,37,43.27a3.27,3.27,0,0,1,2.66-.09,1.68,1.68,0,0,1,.94,1c.23.79-.25,1.62-1.27,2.22a3.54,3.54,0,0,1-3,.34A1.63,1.63,0,0,1,35.34,45.75Zm4.38-1.26a.77.77,0,0,0-.44-.45,2.38,2.38,0,0,0-1.89.1,2.25,2.25,0,0,0-1,.81.7.7,0,0,0-.12.55.78.78,0,0,0,.47.43,2.62,2.62,0,0,0,2.17-.28C39.51,45.27,39.82,44.84,39.72,44.49Z"/></g></g></svg>