<svg xmlns="http://www.w3.org/2000/svg" xmlns:xlink="http://www.w3.org/1999/xlink" viewBox="0 0 948.25 126.02"><defs><style>.cls-1{fill:url(#linear-gradient);}.cls-2{fill:url(#linear-gradient-2);}.cls-3{fill:url(#linear-gradient-3);}.cls-4{fill:url(#linear-gradient-4);}.cls-5{fill:url(#linear-gradient-5);}.cls-6{fill:url(#linear-gradient-6);}.cls-7{fill:url(#linear-gradient-7);}.cls-8{fill:url(#linear-gradient-8);}.cls-9{fill:url(#linear-gradient-9);}.cls-10{fill:url(#linear-gradient-10);}.cls-11{fill:url(#linear-gradient-11);}.cls-12{fill:url(#linear-gradient-12);}.cls-13{fill:url(#linear-gradient-13);}.cls-14{fill:url(#linear-gradient-14);}.cls-15{fill:url(#linear-gradient-15);}.cls-16{fill:url(#linear-gradient-16);}</style><linearGradient id="linear-gradient" y1="66.5" x2="948.25" y2="66.5" gradientUnits="userSpaceOnUse"><stop offset="0" stop-color="#0070ac"/><stop offset="0.4" stop-color="#a93a82"/><stop offset="1" stop-color="#e50d6a"/></linearGradient><linearGradient id="linear-gradient-2" x1="162.58" y1="840.66" x2="384.48" y2="979.21" gradientTransform="matrix(0.28, 0.96, 0.96, -0.28, -582.38, 60.21)" xlink:href="#linear-gradient"/><linearGradient id="linear-gradient-3" x1="160.39" y1="844.16" x2="382.29" y2="982.71" gradientTransform="matrix(0.28, 0.96, 0.96, -0.28, -582.38, 60.21)" xlink:href="#linear-gradient"/><linearGradient id="linear-gradient-4" x1="159.11" y1="846.2" x2="381.01" y2="984.76" gradientTransform="matrix(0.28, 0.96, 0.96, -0.28, -582.38, 60.21)" xlink:href="#linear-gradient"/><linearGradient id="linear-gradient-5" x1="158.44" y1="847.28" x2="380.34" y2="985.84" gradientTransform="matrix(0.28, 0.96, 0.96, -0.28, -582.38, 60.21)" xlink:href="#linear-gradient"/><linearGradient id="linear-gradient-6" x1="158" y1="847.98" x2="379.9" y2="986.54" gradientTransform="matrix(0.28, 0.96, 0.96, -0.28, -582.38, 60.21)" xlink:href="#linear-gradient"/><linearGradient id="linear-gradient-7" x1="157.63" y1="848.57" x2="379.53" y2="987.13" gradientTransform="matrix(0.28, 0.96, 0.96, -0.28, -582.38, 60.21)" xlink:href="#linear-gradient"/><linearGradient id="linear-gradient-8" x1="157.33" y1="849.06" x2="379.23" y2="987.62" gradientTransform="matrix(0.28, 0.96, 0.96, -0.28, -582.38, 60.21)" xlink:href="#linear-gradient"/><linearGradient id="linear-gradient-9" x1="157.2" y1="849.27" x2="379.1" y2="987.83" gradientTransform="matrix(0.28, 0.96, 0.96, -0.28, -582.38, 60.21)" xlink:href="#linear-gradient"/><linearGradient id="linear-gradient-10" x1="157.56" y1="848.68" x2="379.46" y2="987.24" gradientTransform="matrix(0.28, 0.96, 0.96, -0.28, -582.38, 60.21)" xlink:href="#linear-gradient"/><linearGradient id="linear-gradient-11" x1="158.49" y1="847.2" x2="380.39" y2="985.75" gradientTransform="matrix(0.28, 0.96, 0.96, -0.28, -582.38, 60.21)" xlink:href="#linear-gradient"/><linearGradient id="linear-gradient-12" x1="159.32" y1="845.87" x2="381.22" y2="984.43" gradientTransform="matrix(0.28, 0.96, 0.96, -0.28, -582.38, 60.21)" xlink:href="#linear-gradient"/><linearGradient id="linear-gradient-13" x1="159.6" y1="845.42" x2="381.5" y2="983.98" gradientTransform="matrix(0.28, 0.96, 0.96, -0.28, -582.38, 60.21)" xlink:href="#linear-gradient"/><linearGradient id="linear-gradient-14" x1="159.56" y1="845.48" x2="381.46" y2="984.04" gradientTransform="matrix(0.28, 0.96, 0.96, -0.28, -582.38, 60.21)" xlink:href="#linear-gradient"/><linearGradient id="linear-gradient-15" x1="159.41" y1="845.73" x2="381.31" y2="984.28" gradientTransform="matrix(0.28, 0.96, 0.96, -0.28, -582.38, 60.21)" xlink:href="#linear-gradient"/><linearGradient id="linear-gradient-16" x1="159.29" y1="845.91" x2="381.2" y2="984.47" gradientTransform="matrix(0.28, 0.96, 0.96, -0.28, -582.38, 60.21)" xlink:href="#linear-gradient"/></defs><g id="Layer_2" data-name="Layer 2"><g id="Layer_1-2" data-name="Layer 1"><path class="cls-1" d="M11.25,96.67q13.55,11.51,32.23,11.67Q65.59,108,65.9,92q.16-13.09-14.78-15.75-6.84-1-15-2.17Q21.49,71.62,13.86,62.94,6,54,6,41.24,6,25.9,15.87,16.49,25.42,7.16,43,7q21.14.48,36.76,12.09L70.18,33.68a50.8,50.8,0,0,0-28.09-9,21,21,0,0,0-13.23,4.1Q23.34,33,23.18,41.47A13.12,13.12,0,0,0,27,50.63q3.81,4.18,12.21,5.79,4.66.81,12.76,1.85,15.95,2.25,23.57,11.81a33.93,33.93,0,0,1,7.55,21.86q-.85,33.6-39.79,34.08Q18.11,126,0,110ZM98,85.42q.16,18.43,11.83,29.27Q121.26,125.84,138.3,126q17.35-.16,28.71-11.32,11.28-10.84,11.59-29.31V8H161.43V83.5q-.15,12-6.54,18.24a22.4,22.4,0,0,1-16.59,6.59q-10,0-16.43-6.59-6.54-6.27-6.7-18.24V8H98ZM199.55,8V125h17.17V75h22l23.47,50h20.4L256.34,73.08q21.59-8.6,21.9-32.44-.47-16.22-11.24-25Q258,8,243.87,8H199.55Zm17.17,15.73h27q8.27,0,12.63,3.62,5.54,4.1,5.69,13.28a18.45,18.45,0,0,1-4.76,12.88q-4.83,5.64-14.5,5.8h-26ZM472.3,8V125h17.17V52h.31l23.73,56.22h14.32L551.56,52H552v73h17.17V8H552.88L521,84.27,488.48,8ZM590.14,93.62a34.51,34.51,0,0,0,1.56,6.26c.67,1.61,1.42,3.29,2.25,5.06q4.13,8.11,13.22,14.29,8.94,6.43,22.31,6.75,13.51-.33,22.54-6.75,8.93-6.18,12.9-14.29a27.76,27.76,0,0,0,4-11.32q1-7.07,1-27.14,0-20.4-1-27.3a27.34,27.34,0,0,0-4-11.16q-4-8.1-12.91-14.45T629.47,7q-13.37.16-22.31,6.56-9.1,6.32-13.22,14.4a33.13,33.13,0,0,0-3.81,11.18Q589,46.06,589,66.49,589,86.57,590.14,93.62Zm17.24-50.71a19.75,19.75,0,0,1,4.44-9.74,21.88,21.88,0,0,1,7.17-6,23.31,23.31,0,0,1,10.44-2.49,24.22,24.22,0,0,1,10.67,2.49,20.71,20.71,0,0,1,6.86,6,20.77,20.77,0,0,1,4.6,9.74q1.17,6.29,1.17,23.58t-1.17,23.42a21,21,0,0,1-4.6,9.9,19.23,19.23,0,0,1-6.86,5.87,20.58,20.58,0,0,1-10.67,2.66A19.71,19.71,0,0,1,619,105.68a20.32,20.32,0,0,1-7.17-5.87,19.87,19.87,0,0,1-4.44-9.9q-1.25-6.12-1.25-23.42T607.38,42.91ZM689,8V125h38.51q12.76,0,21.55-5.78a40.15,40.15,0,0,0,13.85-13.65,63.6,63.6,0,0,0,3.19-6A30.52,30.52,0,0,0,768,92.83q1.32-7.47,1.32-26.34,0-17.74-.85-25a35.94,35.94,0,0,0-5.21-13.81Q751.71,8.12,728.67,8H689Zm17.17,100.37V24.64h20.56q13.08-.32,20.25,9.9a20.43,20.43,0,0,1,4.44,10.7q.71,6.6.7,21.89,0,15.69-.7,21.4a19.87,19.87,0,0,1-3.66,9.58q-6.54,10.22-21,10.22H706.15ZM788.46,125H860.9V108.33H805.63V73.87h47.18V58.15H805.63V24.65H860.9V8H788.46ZM875.81,8V125h72.44V108.34H893V8Z"/><path class="cls-2" d="M358.53,99.34a31.49,31.49,0,0,1-.84-3.85c-2-12.7,2.64-29.88,10.51-39.11,6.51-7.63,12.8-8.16,16.94-7.27,7.25,1.57,13.51,8.66,16.34,18.51a40.54,40.54,0,0,1-2.63,28.95c-5.26,10.82-15.28,17.53-25,16.7C366.5,112.63,360.89,107.56,358.53,99.34Zm42.05-31.46c-2.7-9.38-8.84-16.38-15.64-17.86-5.57-1.21-11.11,1.2-16,7-7.72,9.05-12.24,25.9-10.3,38.36a30.1,30.1,0,0,0,.82,3.74c2.25,7.82,7.56,12.66,14.55,13.26,9.28.8,18.93-5.7,24-16.17A39.56,39.56,0,0,0,400.58,67.88Z"/><path class="cls-3" d="M345.69,104.77c-6.26-21.75,3.53-59.54,19.05-73.51,5.87-5.28,12.68-7.72,19.71-7,14.29,1.36,26.4,13.43,31.6,31.49a62.46,62.46,0,0,1-.34,36.3c-4.17,12.79-12.55,22.48-24.23,28-14.07,6.7-33.76,5.74-42.34-7.46A29.22,29.22,0,0,1,345.69,104.77ZM415.15,56c-5.09-17.68-16.89-29.49-30.79-30.82-6.76-.64-13.33,1.71-19,6.81-15,13.52-24.84,51.49-18.78,72.55a28.33,28.33,0,0,0,3.33,7.57c8.31,12.77,27.45,13.65,41.16,7.12C416.63,107,421.47,77.9,415.15,56Z"/><path class="cls-4" d="M337.72,105.61c-6.17-21.45,3.06-68.4,20.6-85.26a31.44,31.44,0,0,1,31.77-7.47c16,4.89,28.34,18.54,33.78,37.46,5.51,19.14,2.6,40-7.6,54.43-8.94,12.66-22.81,19.9-40.09,20.94a64.45,64.45,0,0,1-8.32-.06c-15.28-1.05-24.79-6.58-29.07-16.92A32.39,32.39,0,0,1,337.72,105.61Zm85.26-55c-5.36-18.61-17.44-32-33.16-36.82A30.52,30.52,0,0,0,359,21c-17.34,16.66-26.45,63.11-20.35,84.32a30.82,30.82,0,0,0,1.05,3c4.13,10,13.37,15.32,28.27,16.34a66.3,66.3,0,0,0,8.2.06c17-1,30.61-8.13,39.38-20.55C425.55,90,428.41,69.48,423,50.61Z"/><path class="cls-5" d="M332,103.87a52.62,52.62,0,0,1-1.8-12.53c-.68-17.46,5.31-59,22.23-75.94,8.84-8.84,21.36-12.21,34.37-9.23,19.63,4.48,35.12,20.25,41.43,42.17,5.21,18.12,3,37.38-5.84,51.54-7.82,12.47-20.34,20.5-36.22,23.24a94.89,94.89,0,0,1-27.62.14C343,120.93,335.31,115.31,332,103.87Zm95.34-55.28C421.14,27,405.91,11.48,386.61,7.07c-12.69-2.9-24.9.38-33.5,9-16.72,16.73-22.63,57.92-22,75.24a51.82,51.82,0,0,0,1.76,12.31c3.18,11,10.65,16.46,25.79,18.72a94,94,0,0,0,27.33-.13c15.61-2.69,27.91-10.58,35.58-22.82C430.35,85.44,432.49,66.46,427.35,48.59Z"/><path class="cls-6" d="M327.27,101.05c-1.59-5.53-2.15-12.59-1.71-21.59.85-17.25,6.29-50.54,21.3-65.89C355.85,4.38,369,.38,383,2.6c22.7,3.61,41.08,20.72,48,44.66,7.85,27.27-.91,60.29-32.85,70.62-12.05,3.9-29.2,4-40.24,2.81C342,119.05,331.34,115.19,327.27,101.05ZM430.08,47.52c-6.79-23.58-24.88-40.44-47.21-44-13.68-2.18-26.56,1.72-35.34,10.7-14.82,15.15-20.19,48.16-21,65.28-.44,8.89.11,15.86,1.67,21.28,3.92,13.63,14.32,17.37,29.83,19,10.94,1.13,27.95,1.09,39.85-2.77C429.21,106.84,437.8,74.36,430.08,47.52Z"/><path class="cls-7" d="M322.62,97a63,63,0,0,1-2-18c.17-15.47,4.7-49.08,20.68-65.49C350.56,4,364.23-.65,378.84.73c30.83,2.91,48.05,25.58,53.87,45.83,7.17,24.93,0,56.63-32.64,67.34-16.61,5.45-47.55,4.9-60.28.65C333.17,112.33,326,108.51,322.62,97Zm109.2-50.16c-5.74-20-22.7-42.29-53.06-45.15C364.43.31,351,4.86,342,14.14c-15.77,16.2-20.25,49.5-20.41,64.85a61.85,61.85,0,0,0,1.94,17.72c3.2,11.13,10.17,14.81,16.56,17,12.6,4.21,43.24,4.74,59.7-.66C431.86,102.48,438.87,71.32,431.82,46.81Z"/><path class="cls-8" d="M317.72,91.14a56.88,56.88,0,0,1-1.94-13.2c-.73-16.55,4-47.08,20-63.4,9.5-9.69,23.47-15,38.32-14.51,34,1.07,52.9,25,58.71,45.22,6.71,23.32-.48,51.87-31.66,63.09-16.19,5.82-55,8-70.5-.43C324.18,104.4,320,98.92,317.72,91.14ZM431.89,45.51C426.17,25.62,407.58,2,374.05,1c-14.6-.46-28.31,4.73-37.63,14.23-15.78,16.1-20.43,46.32-19.7,62.7a56,56,0,0,0,1.9,13c2.17,7.53,6.24,12.83,12.45,16.21,15.28,8.31,53.7,6.14,69.73.37C431.42,96.44,438.48,68.41,431.89,45.51Z"/><path class="cls-9" d="M313.28,83.65a57.72,57.72,0,0,1-1.81-18.36c.76-19.2,7.86-37.37,19-48.6,12.23-12.35,31.4-18.13,50-15.08,23.74,3.88,42.31,19.57,48.46,40.94a47.38,47.38,0,0,1-2,32.7c-5,10.94-14.31,19.57-27,25-18,7.63-54.26,10.2-71,2.33C321.09,98.85,315.83,92.5,313.28,83.65ZM428,42.81c-6.05-21-24.33-36.46-47.72-40.28-18.33-3-37.19,2.68-49.21,14.82-11,11.07-17.95,29-18.71,48a56.7,56.7,0,0,0,1.78,18.06c2.47,8.58,7.56,14.73,15.13,18.29,16.24,7.64,52.8,5.06,70.23-2.34C429,86.84,433.29,61.08,428,42.81Z"/><path class="cls-10" d="M311.3,75.08c-2.55-8.85-2.13-20,1.15-30.68,8.22-26.7,32.39-42.71,60.14-39.84,22,2.28,39.78,15.89,45.18,34.67a39.26,39.26,0,0,1-5,33.12c-6.33,9.49-20,21.52-49,24.87-13,1.5-36.45,2-47.19-11.62A30.39,30.39,0,0,1,311.3,75.08ZM416.87,39.5c-5.3-18.41-22.72-31.76-44.38-34-27.29-2.83-51.06,12.92-59.15,39.18-3.23,10.48-3.65,21.47-1.15,30.14A29.57,29.57,0,0,0,317.28,85c10.46,13.26,33.53,12.76,46.35,11.27,28.67-3.32,42.1-15.13,48.31-24.46A38.25,38.25,0,0,0,416.87,39.5Z"/><path class="cls-11" d="M313.73,66.12A31.92,31.92,0,0,1,312.58,59c-1.22-23.25,17.88-44.35,42.57-47s40.32,11.43,44.42,25.67c4.5,15.64-3.43,35.39-31.29,44.25-12.38,3.94-30,5.79-42.34-.81A24,24,0,0,1,313.73,66.12Zm84.93-28.23c-4-13.87-19.28-27.61-43.42-25s-42.93,23.28-41.74,46c.51,9.79,4.9,17,12.86,21.31,12.08,6.46,29.42,4.62,41.62.74C395.25,72.32,403,53.1,398.66,37.89Z"/><path class="cls-12" d="M320.44,58.18c-2.06-7.15.18-15.78,6-23.1a35.77,35.77,0,0,1,30.28-13.49c12.19.64,21.47,7,24.21,16.47a21.05,21.05,0,0,1-2.09,16.18c-4.08,7.3-12.22,13-22.93,15.93-10,2.78-20,2.29-26.64-1.33A17.44,17.44,0,0,1,320.44,58.18ZM380,38.32c-2.62-9.12-11.57-15.17-23.36-15.79a34.87,34.87,0,0,0-29.5,13.14c-5.54,7-7.78,15.5-5.83,22.25A16.63,16.63,0,0,0,329.7,68c6.46,3.5,16.16,4,25.94,1.25,10.46-2.91,18.41-8.41,22.36-15.49A20.09,20.09,0,0,0,380,38.32Z"/><path class="cls-13" d="M329,52.44c-1.16-4,0-8.68,3.23-12.79a24.53,24.53,0,0,1,19.95-9.11c7.64.28,13.39,3.93,15,9.54,1.82,6.32-1.92,15.08-14.44,19.35-8.86,3-20,2-23.32-5.78C329.29,53.26,329.14,52.85,329,52.44Zm37.29-12.09c-1.5-5.21-6.92-8.61-14.14-8.87A23.56,23.56,0,0,0,333,40.23c-3.33,4.26-4.34,9.13-2.68,13.07,3.06,7.28,13.7,8.14,22.15,5.25C364.41,54.48,368,46.26,366.31,40.35Z"/><path class="cls-14" d="M336.41,49a5.63,5.63,0,0,1-.14-.59c-.44-2.38.58-5,2.77-7.21A15,15,0,0,1,352,37.06c3.4.62,5.77,2.43,6.51,5,.84,2.91-.63,6.09-3.91,8.51-4,2.94-9.65,4-13.78,2.62A6.35,6.35,0,0,1,336.41,49Zm21.16-6.68c-.63-2.19-2.74-3.77-5.78-4.32a14,14,0,0,0-12.08,3.85c-2,2-2.9,4.31-2.52,6.39a5.45,5.45,0,0,0,3.88,4.07c3.8,1.29,9.23.24,12.93-2.49C357,47.61,358.29,44.81,357.57,42.29Z"/><path class="cls-15" d="M341.65,46.91a1.46,1.46,0,0,1,0-.2,4,4,0,0,1,1.09-3.39,7.77,7.77,0,0,1,7.42-2.46,4.09,4.09,0,0,1,3.27,2.54c.23.78.2,2-1.23,3.54a8.59,8.59,0,0,1-7.72,2.3A3.48,3.48,0,0,1,341.65,46.91Zm10.83-3.24a3.18,3.18,0,0,0-2.57-1.89,6.8,6.8,0,0,0-6.51,2.16,3.08,3.08,0,0,0-.88,2.57,2.61,2.61,0,0,0,2.13,1.83,7.62,7.62,0,0,0,6.82-2A2.81,2.81,0,0,0,352.48,43.67Z"/><path class="cls-16" d="M345,45.75a1.6,1.6,0,0,1,.22-1.29,3.17,3.17,0,0,1,1.45-1.19,3.27,3.27,0,0,1,2.66-.09,1.68,1.68,0,0,1,.94,1c.23.79-.25,1.62-1.27,2.22a3.54,3.54,0,0,1-3,.34A1.63,1.63,0,0,1,345,45.75Zm4.38-1.26a.77.77,0,0,0-.44-.45,2.38,2.38,0,0,0-1.89.1,2.25,2.25,0,0,0-1,.81.7.7,0,0,0-.12.55.78.78,0,0,0,.47.43,2.62,2.62,0,0,0,2.17-.28C349.16,45.27,349.47,44.84,349.37,44.49Z"/></g></g></svg>