<svg xmlns="http://www.w3.org/2000/svg" viewBox="0 0 563.7 74.91"><defs><style>.cls-1{fill:#fff;}</style></defs><g id="Layer_2" data-name="Layer 2"><g id="Capa_1" data-name="Capa 1"><path class="cls-1" d="M6.69,57.47A29,29,0,0,0,25.85,64.4Q39,64.22,39.18,54.71q.09-7.78-8.79-9.36l-8.92-1.29q-8.7-1.48-13.23-6.65A18.78,18.78,0,0,1,3.57,24.52q0-9.13,5.86-14.72,5.69-5.55,16.13-5.63a37.12,37.12,0,0,1,21.85,7.18L41.72,20A30.26,30.26,0,0,0,25,14.66a12.47,12.47,0,0,0-7.86,2.44c-2.19,1.69-3.32,4.2-3.38,7.55A7.82,7.82,0,0,0,16,30.1c1.51,1.66,3.93,2.8,7.26,3.44,1.85.32,4.38.68,7.59,1.1q9.48,1.34,14,7a20.17,20.17,0,0,1,4.49,13q-.51,20-23.66,20.26A37.54,37.54,0,0,1,0,65.41Z"/><path class="cls-1" d="M58.26,4.73h10.2V49.64c.06,4.74,1.4,8.36,4,10.84a13,13,0,0,0,9.76,3.92,13.34,13.34,0,0,0,9.87-3.92q3.8-3.72,3.88-10.84V4.73h10.21v46q-.18,11-6.89,17.42-6.75,6.64-17.07,6.73a23.59,23.59,0,0,1-16.92-6.72q-6.93-6.44-7-17.4Z"/><path class="cls-1" d="M118.63,4.73H145q8.43,0,13.75,4.58,6.41,5.2,6.68,14.85-.18,14.18-13,19.28L168,74.33H155.86l-14-29.75H128.83V74.33h-10.2V4.73Zm10.2,30.5h15.48q5.76-.09,8.62-3.44a11,11,0,0,0,2.83-7.66q-.09-5.46-3.38-7.9-2.59-2.14-7.51-2.15h-16Z"/><path class="cls-1" d="M280.77,4.73h9.61l19.33,45.36,19-45.36h9.65v69.6h-10.2V30.92h-.24l-14.1,33.42h-8.52l-14.1-33.42H291V74.33h-10.2V4.73Z"/><path class="cls-1" d="M350.12,39.53q0-12.15.69-16.27a19.8,19.8,0,0,1,2.27-6.65,23.76,23.76,0,0,1,7.86-8.56q5.31-3.8,13.26-3.9,8,.1,13.4,3.92a23.14,23.14,0,0,1,7.67,8.59,16.26,16.26,0,0,1,2.36,6.63,140.74,140.74,0,0,1,.6,16.23,141.06,141.06,0,0,1-.6,16.13,16.51,16.51,0,0,1-2.36,6.73,22.4,22.4,0,0,1-7.67,8.5,23.57,23.57,0,0,1-13.4,4,24.24,24.24,0,0,1-21.12-12.51c-.49-1.05-.94-2.05-1.33-3a20.08,20.08,0,0,1-.93-3.72Q350.12,51.47,350.12,39.53Zm10.2,0q0,10.28.75,13.92a11.75,11.75,0,0,0,2.64,5.88A12,12,0,0,0,368,62.82a11.73,11.73,0,0,0,6.2,1.58,12.24,12.24,0,0,0,6.35-1.58,11.41,11.41,0,0,0,4.08-3.49,12.56,12.56,0,0,0,2.73-5.88c.46-2.43.7-7.06.7-13.92s-.24-11.53-.7-14a12.31,12.31,0,0,0-2.73-5.79,12.3,12.3,0,0,0-4.08-3.59,14.4,14.4,0,0,0-6.35-1.48,13.8,13.8,0,0,0-6.2,1.48,12.87,12.87,0,0,0-4.26,3.59,11.68,11.68,0,0,0-2.64,5.79Q360.32,29.24,360.32,39.53Z"/><path class="cls-1" d="M409.58,4.73h23.59q13.68.1,20.53,11.74a21.26,21.26,0,0,1,3.1,8.21,146.62,146.62,0,0,1,.5,14.85q0,11.2-.78,15.65a18.5,18.5,0,0,1-1.11,4,39.37,39.37,0,0,1-1.9,3.57,23.8,23.8,0,0,1-8.23,8.12,22.83,22.83,0,0,1-12.81,3.44h-22.9V4.73ZM419.79,64.4H432q8.61,0,12.5-6.08a11.82,11.82,0,0,0,2.17-5.69,124.75,124.75,0,0,0,.42-12.72q0-9.09-.42-13A12.21,12.21,0,0,0,444,20.53a13.4,13.4,0,0,0-12-5.88H419.78V64.4Z"/><path class="cls-1" d="M468.71,4.73h43.07v9.92H478.92V34.57H507v9.34H478.92V64.4h32.86v9.92H468.71Z"/><path class="cls-1" d="M520.64,4.73h10.21V64.4H563.7v9.93H520.64V4.73Z"/><path class="cls-1" d="M213.13,59.05a21.44,21.44,0,0,1-.5-2.29c-1.17-7.54,1.57-17.76,6.25-23.24,3.87-4.54,7.61-4.86,10.07-4.33,4.31.94,8,5.15,9.72,11a24.15,24.15,0,0,1-1.57,17.21C234,63.84,228,67.83,222.27,67.33,217.87,67,214.54,63.94,213.13,59.05Zm25-18.7c-1.6-5.57-5.25-9.74-9.3-10.62-3.31-.71-6.6.72-9.53,4.14-4.59,5.38-7.27,15.4-6.12,22.81a18.5,18.5,0,0,0,.49,2.22c1.34,4.65,4.49,7.52,8.65,7.88,5.51.48,11.25-3.39,14.28-9.61A23.57,23.57,0,0,0,238.13,40.35Z"/><path class="cls-1" d="M205.5,62.28c-3.72-12.93,2.1-35.39,11.33-43.7a15.1,15.1,0,0,1,11.71-4.19c8.5.81,15.7,8,18.79,18.72a37.2,37.2,0,0,1-.2,21.58,27.35,27.35,0,0,1-14.41,16.67c-8.36,4-20.07,3.41-25.17-4.44A17.53,17.53,0,0,1,205.5,62.28Zm41.29-29c-3-10.51-10-17.54-18.3-18.33a14.63,14.63,0,0,0-11.3,4C208.27,27,202.43,49.6,206,62.12a16.62,16.62,0,0,0,2,4.5c4.94,7.59,16.32,8.12,24.47,4.23C247.67,63.63,250.55,46.31,246.79,33.27Z"/><path class="cls-1" d="M200.76,62.78C197.1,50,202.58,22.12,213,12.1A18.67,18.67,0,0,1,231.9,7.66c9.52,2.9,16.84,11,20.08,22.26s1.54,23.78-4.52,32.36c-5.32,7.53-13.56,11.83-23.83,12.45a39.13,39.13,0,0,1-4.95,0c-9.08-.62-14.74-3.91-17.28-10A18.33,18.33,0,0,1,200.76,62.78Zm50.69-32.69C248.26,19,241.08,11,231.73,8.2a18.13,18.13,0,0,0-18.33,4.31c-10.31,9.9-15.73,37.51-12.1,50.12.18.64.4,1.25.62,1.81,2.46,5.93,8,9.11,16.81,9.71a37.89,37.89,0,0,0,4.87,0C233.7,73.58,241.8,69.36,247,62,253,53.52,254.67,41.3,251.45,30.09Z"/><path class="cls-1" d="M197.37,61.75a31.05,31.05,0,0,1-1.07-7.45c-.41-10.38,3.16-35.08,13.21-45.15C214.77,3.9,222.21,1.9,230,3.67c11.66,2.66,20.87,12,24.62,25.07,3.1,10.77,1.81,22.22-3.47,30.63-4.65,7.42-12.09,12.19-21.53,13.82a56,56,0,0,1-16.42.08C203.9,71.89,199.33,68.55,197.37,61.75ZM254,28.88C250.35,16.05,241.3,6.82,229.83,4.2c-7.55-1.72-14.81.23-19.92,5.34-9.94,10-13.45,34.43-13,44.73a31,31,0,0,0,1,7.32c1.89,6.56,6.33,9.78,15.33,11.12a55.92,55.92,0,0,0,16.25-.07c9.28-1.6,16.59-6.29,21.15-13.57C255.83,50.79,257.1,39.51,254,28.88Z"/><path class="cls-1" d="M194.55,60.07a40.35,40.35,0,0,1-1-12.83c.51-10.26,3.74-30,12.67-39.17,5.34-5.47,13.18-7.84,21.49-6.53,13.49,2.15,24.42,12.32,28.51,26.55,4.66,16.21-.54,35.84-19.53,42-7.16,2.32-17.36,2.35-23.92,1.68C203.31,70.77,197,68.48,194.55,60.07Zm61.12-31.82c-4-14-14.79-24-28.07-26.15-8.13-1.3-15.79,1-21,6.36-8.81,9-12,28.63-12.5,38.81a39.55,39.55,0,0,0,1,12.65c2.33,8.1,8.51,10.32,17.73,11.27,6.5.67,16.61.65,23.69-1.64C255.15,63.51,260.26,44.2,255.67,28.25Z"/><path class="cls-1" d="M191.79,57.64A37.07,37.07,0,0,1,190.62,47c.1-9.2,2.79-29.18,12.29-38.93,5.49-5.64,13.61-8.41,22.3-7.59,18.32,1.73,28.56,15.21,32,27.25,4.26,14.82,0,33.66-19.4,40C228,71,209.56,70.62,202,68.1,198.06,66.78,193.77,64.5,191.79,57.64ZM256.7,27.83C253.29,16,243.21,2.69,225.16,1c-8.52-.81-16.48,1.9-21.85,7.42-9.38,9.63-12,29.42-12.14,38.55a37,37,0,0,0,1.16,10.53c1.9,6.62,6,8.8,9.84,10.08,7.49,2.5,25.71,2.81,35.49-.4C256.73,60.92,260.89,42.4,256.7,27.83Z"/><path class="cls-1" d="M188.87,54.18a34.14,34.14,0,0,1-1.15-7.85c-.43-9.84,2.37-28,11.87-37.69,5.65-5.76,13.95-8.9,22.78-8.62,20.23.63,31.45,14.88,34.9,26.88,4,13.86-.28,30.83-18.82,37.5-9.62,3.46-32.71,4.75-41.91-.25A15.65,15.65,0,0,1,188.87,54.18Zm67.87-27.13C253.34,15.23,242.29,1.2,222.36.57,213.68.3,205.53,3.38,200,9c-9.38,9.57-12.14,27.53-11.71,37.27A32.94,32.94,0,0,0,189.41,54a15.05,15.05,0,0,0,7.4,9.63c9.08,4.94,31.92,3.65,41.45.22C256.46,57.33,260.66,40.67,256.74,27.05Z"/><path class="cls-1" d="M186.23,49.73a34.5,34.5,0,0,1-1.07-10.92c.45-11.41,4.67-22.21,11.28-28.89,7.27-7.34,18.67-10.78,29.74-9,14.11,2.3,25.15,11.63,28.8,24.33a28.14,28.14,0,0,1-1.21,19.44c-3,6.51-8.51,11.64-16,14.84C227,64.11,205.47,65.63,195.53,61A17.06,17.06,0,0,1,186.23,49.73Zm68.23-24.28C250.86,13,240,3.77,226.09,1.5,215.19-.28,204,3.1,196.83,10.31c-6.51,6.58-10.67,17.24-11.12,28.53a33.57,33.57,0,0,0,1.06,10.73,16.43,16.43,0,0,0,9,10.87c9.66,4.55,31.39,3,41.75-1.39C255,51.62,257.58,36.31,254.46,25.45Z"/><path class="cls-1" d="M185.06,44.63c-1.52-5.26-1.27-11.91.68-18.24C190.63,10.52,205,1,221.49,2.71c13.1,1.36,23.65,9.45,26.86,20.61a23.34,23.34,0,0,1-3,19.69c-3.76,5.64-11.86,12.79-29.12,14.78-7.74.89-21.67,1.19-28-6.9A18.12,18.12,0,0,1,185.06,44.63Zm62.75-21.15c-3.15-10.94-13.5-18.88-26.38-20.21C205.21,1.59,191.08,11,186.27,26.56c-1.92,6.23-2.17,12.76-.68,17.92a17.55,17.55,0,0,0,3,6.07c6.22,7.88,19.93,7.58,27.56,6.7,17-2,25-9,28.71-14.54A22.73,22.73,0,0,0,247.81,23.48Z"/><path class="cls-1" d="M186.5,39.31a19.47,19.47,0,0,1-.68-4.24c-.73-13.82,10.63-26.37,25.3-27.95s24,6.79,26.41,15.26c2.68,9.29-2,21-18.6,26.3-7.36,2.34-17.83,3.44-25.17-.48A14.28,14.28,0,0,1,186.5,39.31ZM237,22.52c-2.37-8.24-11.46-16.41-25.81-14.85S185.66,21.51,186.36,35c.31,5.82,2.92,10.13,7.65,12.67,7.18,3.84,17.49,2.74,24.74.44C235,43,239.59,31.57,237,22.52Z"/><path class="cls-1" d="M190.49,34.59c-1.22-4.26.11-9.39,3.57-13.74a21.27,21.27,0,0,1,18-8c7.24.38,12.76,4.14,14.39,9.79a12.53,12.53,0,0,1-1.24,9.62c-2.43,4.34-7.27,7.71-13.63,9.47-6,1.66-11.88,1.36-15.84-.79A10.35,10.35,0,0,1,190.49,34.59Zm35.42-11.81c-1.56-5.42-6.88-9-13.89-9.39a20.73,20.73,0,0,0-17.53,7.81c-3.3,4.15-4.63,9.22-3.47,13.23a9.88,9.88,0,0,0,5,6c3.84,2.08,9.6,2.35,15.42.74,6.21-1.73,10.94-5,13.29-9.2A12,12,0,0,0,225.91,22.78Z"/><path class="cls-1" d="M195.59,31.17a8.6,8.6,0,0,1,1.92-7.6,14.6,14.6,0,0,1,11.86-5.42c4.54.17,8,2.34,8.92,5.68,1.08,3.75-1.14,9-8.59,11.5-5.26,1.79-11.91,1.2-13.86-3.44A7.61,7.61,0,0,1,195.59,31.17ZM217.76,24c-.89-3.1-4.12-5.12-8.41-5.28a14,14,0,0,0-11.4,5.2c-2,2.54-2.58,5.43-1.59,7.77,1.82,4.33,8.14,4.84,13.17,3.13C216.63,32.39,218.78,27.5,217.76,24Z"/><path class="cls-1" d="M200,29.11a3.59,3.59,0,0,1-.08-.35,5,5,0,0,1,1.65-4.29A8.92,8.92,0,0,1,209.22,22c2,.37,3.43,1.44,3.87,3,.5,1.73-.37,3.62-2.32,5.06a9.56,9.56,0,0,1-8.19,1.56A3.8,3.8,0,0,1,200,29.11Zm12.58-4a4,4,0,0,0-3.43-2.57A8.32,8.32,0,0,0,202,24.86a4.4,4.4,0,0,0-1.5,3.8,3.24,3.24,0,0,0,2.3,2.42,9.13,9.13,0,0,0,7.69-1.48C212.2,28.3,213,26.64,212.56,25.14Z"/><path class="cls-1" d="M203.1,27.89c0-.05,0-.08,0-.12a2.36,2.36,0,0,1,.65-2,4.61,4.61,0,0,1,4.41-1.46,2.44,2.44,0,0,1,1.94,1.51,2.12,2.12,0,0,1-.73,2.1,5.08,5.08,0,0,1-4.59,1.37A2.06,2.06,0,0,1,203.1,27.89ZM209.54,26A1.88,1.88,0,0,0,208,24.84a4,4,0,0,0-3.87,1.28,1.85,1.85,0,0,0-.52,1.53,1.55,1.55,0,0,0,1.26,1.09,4.54,4.54,0,0,0,4.06-1.22A1.68,1.68,0,0,0,209.54,26Z"/><path class="cls-1" d="M205.08,27.2a1,1,0,0,1,.14-.77,1.87,1.87,0,0,1,.86-.71,1.94,1.94,0,0,1,1.58,0,1,1,0,0,1,.56.62c.13.47-.15,1-.76,1.32a2.09,2.09,0,0,1-1.77.2A1,1,0,0,1,205.08,27.2Zm2.61-.75a.46.46,0,0,0-.26-.27,1.41,1.41,0,0,0-1.13.06,1.35,1.35,0,0,0-.6.48.38.38,0,0,0-.07.33.44.44,0,0,0,.28.25,1.57,1.57,0,0,0,1.29-.16C207.56,26.91,207.75,26.66,207.69,26.45Z"/></g></g></svg>