<svg xmlns="http://www.w3.org/2000/svg" viewBox="0 0 283.89 85"><defs><style>.cls-1{fill:#da291c;}.cls-2{fill:#fff;}.cls-3{fill:none;}</style></defs><g id="Layer_2" data-name="Layer 2"><g id="Layer_1-2" data-name="Layer 1"><g id="Grupo_4036" data-name="Grupo 4036"><g id="Grupo_4035" data-name="Grupo 4035"><rect id="Rectángulo_2212" data-name="Rectángulo 2212" class="cls-1" width="85" height="85"/><rect id="Rectángulo_2213" data-name="Rectángulo 2213" class="cls-2" x="42.38" y="24.72" width="12.46" height="35.61"/><path id="Trazado_24332" data-name="Trazado 24332" class="cls-2" d="M25,24.73l-14.82,0,20,27.73,7.46-10.23Z"/><path id="Trazado_24333" data-name="Trazado 24333" class="cls-2" d="M68.15,42.48a4.81,4.81,0,1,1-4.81-4.8,4.81,4.81,0,0,1,4.81,4.8h0"/><path id="Trazado_24334" data-name="Trazado 24334" d="M124.08,16.71V39.34h-1.91V20.4l-8.92,13.19h-1.2L103.12,20.4V39.34h-1.9V16.71h1.61l9.83,14.52,9.8-14.52Z"/><path id="Trazado_24335" data-name="Trazado 24335" d="M143.51,23.82V39.34h-1.68V36.56a7.89,7.89,0,0,1-2.47,2.2,6.78,6.78,0,0,1-3.54.94,5.91,5.91,0,0,1-6.28-5.5,7.3,7.3,0,0,1,0-.81V23.82h1.84v9.35a4.91,4.91,0,0,0,1.23,3.6A4.54,4.54,0,0,0,136,38a5.57,5.57,0,0,0,3.32-1,8.53,8.53,0,0,0,2.34-2.52V23.82Z"/><path id="Trazado_24336" data-name="Trazado 24336" d="M149.27,45.84a4.57,4.57,0,0,1-3,1,6,6,0,0,1-2.3-.39V44.71a4.48,4.48,0,0,0,1.84.36c1.88,0,2.81-.92,2.81-2.75V23.82h1.81V42.58a4,4,0,0,1-1.2,3.26M150.43,20a1.38,1.38,0,0,1-.91.31,1.34,1.34,0,0,1-.89-.32,1.16,1.16,0,0,1-.37-.91,1.19,1.19,0,0,1,.37-.89,1.34,1.34,0,0,1,1.78,0,1.31,1.31,0,0,1,0,1.81"/><path id="Trazado_24337" data-name="Trazado 24337" d="M156.85,25.63a7.54,7.54,0,0,1,5.35-2.16,8.33,8.33,0,0,1,3.08.53,5.77,5.77,0,0,1,2.18,1.44,8.19,8.19,0,0,1,1.37,2.07,6.08,6.08,0,0,1,.6,2.41,13.93,13.93,0,0,1-.14,2.5h-12.9a5.18,5.18,0,0,0,2.13,4.19A8.11,8.11,0,0,0,163.34,38a10,10,0,0,0,5.07-1.26v1.81a11.16,11.16,0,0,1-5.33,1.13,9.08,9.08,0,0,1-6.1-2.07,7.48,7.48,0,0,1-2.44-6.05,7.75,7.75,0,0,1,2.31-5.95M166.58,27a4.87,4.87,0,0,0-4.25-1.81,6,6,0,0,0-4.11,1.5,5.61,5.61,0,0,0-1.84,4.15h11.29A5.4,5.4,0,0,0,166.58,27"/><path id="Trazado_24338" data-name="Trazado 24338" d="M177.72,24.5a7,7,0,0,1,4.11-1v1.84a6.13,6.13,0,0,0-4.23,1.12,6.48,6.48,0,0,0-2.43,3.41v9.48h-1.84V23.82H175v3.59a7,7,0,0,1,2.75-2.91"/><path id="Trazado_24339" data-name="Trazado 24339" d="M185.08,25.63a7.54,7.54,0,0,1,5.35-2.16,8.33,8.33,0,0,1,3.08.53,5.77,5.77,0,0,1,2.18,1.44,8.19,8.19,0,0,1,1.37,2.07,6.08,6.08,0,0,1,.6,2.41,13.07,13.07,0,0,1-.14,2.5h-12.9a5.18,5.18,0,0,0,2.13,4.19A8.11,8.11,0,0,0,191.57,38a10,10,0,0,0,5.07-1.26v1.81a11.16,11.16,0,0,1-5.33,1.13,9.08,9.08,0,0,1-6.1-2.07,7.45,7.45,0,0,1-2.44-6.05,7.75,7.75,0,0,1,2.31-5.95M194.81,27a4.87,4.87,0,0,0-4.25-1.81,6,6,0,0,0-4.11,1.5,5.61,5.61,0,0,0-1.84,4.15H195.9A5.4,5.4,0,0,0,194.81,27"/><path id="Trazado_24340" data-name="Trazado 24340" d="M202.33,24.51a7.44,7.44,0,0,1,4-1.05,10.91,10.91,0,0,1,5.4,1.33v1.75a9.6,9.6,0,0,0-5.27-1.43,5.84,5.84,0,0,0-2.81.63,2.08,2.08,0,0,0-1.17,1.93,2.14,2.14,0,0,0,1.06,1.81,8.18,8.18,0,0,0,2.57,1.11c1,.27,2,.56,3,.88a6.23,6.23,0,0,1,2.55,1.47,3.37,3.37,0,0,1,1.06,2.55A3.45,3.45,0,0,1,211,38.68a8.64,8.64,0,0,1-4.4,1,10.57,10.57,0,0,1-6-1.52V36.36A10.3,10.3,0,0,0,206.5,38q4.4,0,4.4-2.45a2.08,2.08,0,0,0-1.05-1.8,8.87,8.87,0,0,0-2.57-1.1c-1-.27-2-.56-3-.89a6.38,6.38,0,0,1-2.56-1.5,3.4,3.4,0,0,1-1-2.57,3.5,3.5,0,0,1,1.68-3.18"/><path id="Trazado_24341" data-name="Trazado 24341" d="M117.16,46.58v4.27H106.07v4.82h10.12v4.24H106.07v5h11.29v4.27H101.22V46.58Z"/><path id="Trazado_24342" data-name="Trazado 24342" d="M120.46,69.22V53.7h4v1.81a7.09,7.09,0,0,1,2-1.57,6.17,6.17,0,0,1,2.92-.7,5.35,5.35,0,0,1,4.75,2.3,7.3,7.3,0,0,1,5.17-2.3,5.14,5.14,0,0,1,4.38,1.86,6.91,6.91,0,0,1,1.41,4.29v9.83h-4.46V59.68A2.56,2.56,0,0,0,140,57.8a2.34,2.34,0,0,0-1.76-.68,4,4,0,0,0-3.07,1.56,4.18,4.18,0,0,1,0,.71v9.83h-4.46V59.68a2.55,2.55,0,0,0-.66-1.88,2.36,2.36,0,0,0-1.76-.68A4.15,4.15,0,0,0,125,59V69.22Z"/><path id="Trazado_24343" data-name="Trazado 24343" d="M158.36,53.24a6.84,6.84,0,0,1,5.54,2.41,9.33,9.33,0,0,1,0,11.61,6.84,6.84,0,0,1-5.54,2.41,6.54,6.54,0,0,1-5.11-2.1v8.76h-4.5V53.7h4V56a6.44,6.44,0,0,1,5.63-2.71m1.87,5.06a3.71,3.71,0,0,0-3-1.28,4.41,4.41,0,0,0-4,2.59V63.3a4.45,4.45,0,0,0,4,2.59,3.71,3.71,0,0,0,3-1.28,5.05,5.05,0,0,0,0-6.3"/><path id="Trazado_24344" data-name="Trazado 24344" d="M175.37,53.92a7.51,7.51,0,0,1,3.75-.55v4.37a6.25,6.25,0,0,0-3.45.32,4.32,4.32,0,0,0-2.31,2v9.12h-4.49V53.7h4V56a5.76,5.76,0,0,1,2.53-2.1"/><path id="Trazado_24345" data-name="Trazado 24345" d="M181,57.72A6.74,6.74,0,0,1,183,55.15a9.42,9.42,0,0,1,2.56-1.42,7.94,7.94,0,0,1,2.73-.49,8.74,8.74,0,0,1,4,.88,5.92,5.92,0,0,1,2.51,2.24,9.29,9.29,0,0,1,1.11,3.1,7.59,7.59,0,0,1-.17,3.45H184.81a3.45,3.45,0,0,0,1.87,2.41,7.72,7.72,0,0,0,3.59.79,11.46,11.46,0,0,0,4.69-.94V68.7a14.92,14.92,0,0,1-5.69,1,9.61,9.61,0,0,1-6.43-2.17,7.51,7.51,0,0,1-2.56-6,9,9,0,0,1,.74-3.73m10.06.08a3,3,0,0,0-2.65-1.13,3.82,3.82,0,0,0-2.55.89,3.05,3.05,0,0,0-1.1,2.44h6.91a3,3,0,0,0-.61-2.2"/><path id="Trazado_24346" data-name="Trazado 24346" d="M200,54.39a8.59,8.59,0,0,1,4.62-1.15,12.88,12.88,0,0,1,5.72,1.33v3.69a9.15,9.15,0,0,0-2.53-1.14,10.57,10.57,0,0,0-2.9-.45q-2.16,0-2.16,1.23c0,.48.3.86.9,1.17a12,12,0,0,0,2.2.79,25.59,25.59,0,0,1,2.57.82,5.29,5.29,0,0,1,2.18,1.55,4,4,0,0,1,.91,2.66,4.06,4.06,0,0,1-1,2.84A5.36,5.36,0,0,1,208,69.25a12.9,12.9,0,0,1-3.5.42,12,12,0,0,1-6.18-1.45V64.5a10.69,10.69,0,0,0,5.92,1.65c1.81,0,2.71-.39,2.71-1.17,0-.45-.3-.83-.9-1.13a12,12,0,0,0-2.19-.81c-.85-.24-1.7-.52-2.57-.85a5.51,5.51,0,0,1-2.2-1.56,3.84,3.84,0,0,1-.9-2.6A3.94,3.94,0,0,1,200,54.4"/><path id="Trazado_24347" data-name="Trazado 24347" d="M229.24,66.24a2.42,2.42,0,0,0,.84-.13v3a7.31,7.31,0,0,1-2.49.45,3.6,3.6,0,0,1-3.43-1.75,8.73,8.73,0,0,1-5.59,1.91,5.9,5.9,0,0,1-3.87-1.28,4.22,4.22,0,0,1-1.56-3.47,4.41,4.41,0,0,1,1.1-3.08,5.51,5.51,0,0,1,2.55-1.66,11,11,0,0,1,3.17-.44,16.38,16.38,0,0,1,3.69.42v-.55a2.26,2.26,0,0,0-.94-1.9A4.45,4.45,0,0,0,220,57a14.86,14.86,0,0,0-5.5,1.17V54.28a19,19,0,0,1,6-1q7.62,0,7.63,7v4.95c0,.69.36,1,1.1,1M218.66,63a1.69,1.69,0,0,0-.93,1.61,1.63,1.63,0,0,0,.69,1.37,2.76,2.76,0,0,0,1.73.54,5.12,5.12,0,0,0,3.49-1.26V62.78a11.2,11.2,0,0,0-2.65-.35,4.71,4.71,0,0,0-2.33.52"/><path id="Trazado_24348" data-name="Trazado 24348" d="M238.71,53.92a7.53,7.53,0,0,1,3.75-.55v4.37a6.22,6.22,0,0,0-3.44.32,4.28,4.28,0,0,0-2.31,2v9.12h-4.5V53.7h4V56a5.73,5.73,0,0,1,2.52-2.1"/><path id="Trazado_24349" data-name="Trazado 24349" d="M249,50.46a3.09,3.09,0,0,1-3.79,0,2.78,2.78,0,0,1,0-3.78,3.06,3.06,0,0,1,3.77,0,2.31,2.31,0,0,1,.76,1.88,2.38,2.38,0,0,1-.74,1.9m-4.14,3.24h4.49V69.22h-4.49Z"/><path id="Trazado_24350" data-name="Trazado 24350" d="M268.23,66.24a2.47,2.47,0,0,0,.85-.13v3a7.31,7.31,0,0,1-2.49.45,3.58,3.58,0,0,1-3.43-1.75,8.76,8.76,0,0,1-5.6,1.91,5.9,5.9,0,0,1-3.86-1.28,4.26,4.26,0,0,1-1.57-3.47,4.51,4.51,0,0,1,1.1-3.08,5.54,5.54,0,0,1,2.56-1.66,10.93,10.93,0,0,1,3.17-.44,16.29,16.29,0,0,1,3.68.42v-.55a2.26,2.26,0,0,0-.94-1.9A4.4,4.4,0,0,0,259,57a14.86,14.86,0,0,0-5.5,1.17V54.28a18.89,18.89,0,0,1,6-1q7.63,0,7.63,7v4.95c0,.69.37,1,1.1,1M257.66,63a1.71,1.71,0,0,0-.94,1.61,1.62,1.62,0,0,0,.7,1.37,2.76,2.76,0,0,0,1.73.54,5.14,5.14,0,0,0,3.49-1.26V62.78a11.34,11.34,0,0,0-2.65-.35,4.71,4.71,0,0,0-2.33.52"/><path id="Trazado_24351" data-name="Trazado 24351" d="M272.37,54.39A8.64,8.64,0,0,1,277,53.24a12.91,12.91,0,0,1,5.72,1.33v3.69a9.08,9.08,0,0,0-2.54-1.14,10.5,10.5,0,0,0-2.89-.45c-1.45,0-2.17.41-2.17,1.23,0,.48.3.86.91,1.17a12,12,0,0,0,2.2.79,25.59,25.59,0,0,1,2.57.82A5.29,5.29,0,0,1,283,62.23a4,4,0,0,1,.91,2.66,4.06,4.06,0,0,1-1,2.84,5.38,5.38,0,0,1-2.52,1.52,13,13,0,0,1-3.51.42,12,12,0,0,1-6.18-1.45V64.5a10.69,10.69,0,0,0,5.92,1.65c1.81,0,2.72-.39,2.72-1.17,0-.45-.31-.83-.91-1.13a12.16,12.16,0,0,0-2.18-.81c-.85-.24-1.71-.52-2.57-.85a5.45,5.45,0,0,1-2.2-1.56,3.8,3.8,0,0,1-.91-2.6,4,4,0,0,1,1.84-3.63"/><line id="Línea_190" data-name="Línea 190" class="cls-3" x1="73.77" y1="24.68" x2="73.77" y2="36"/><path id="Trazado_24352" data-name="Trazado 24352" class="cls-2" d="M73.77,36,58.06,24.68H73.77Z"/><path id="Trazado_24353" data-name="Trazado 24353" class="cls-2" d="M73.77,49,58.06,60.33H73.77Z"/><path id="Trazado_24354" data-name="Trazado 24354" class="cls-2" d="M21.6,60.33,10.29,44.62V60.33Z"/></g></g></g></g></svg>