<svg xmlns="http://www.w3.org/2000/svg" viewBox="0 0 445.26 67.93"><defs><style>.cls-1{fill:#fff;}</style></defs><g id="Layer_2" data-name="Layer 2"><g id="Layer_1-2" data-name="Layer 1"><path class="cls-1" d="M6.42,51.18a28,28,0,0,0,18.39,6.66q12.61-.18,12.8-9.31.09-7.47-8.44-9c-2.6-.36-5.46-.78-8.56-1.24q-8.35-1.41-12.7-6.37A18.09,18.09,0,0,1,3.42,19.54q0-8.74,5.64-14.12Q14.51.1,24.53,0a35.6,35.6,0,0,1,21,6.9l-5.46,8.32a29,29,0,0,0-16-5.14,12,12,0,0,0-7.55,2.34c-2.1,1.62-3.19,4-3.24,7.25A7.45,7.45,0,0,0,15.4,24.9c1.45,1.6,3.77,2.69,7,3.31,1.77.31,4.2.65,7.28,1.05Q38.75,30.55,43.1,36a19.37,19.37,0,0,1,4.31,12.48Q46.92,67.65,24.7,67.93A36.11,36.11,0,0,1,0,58.81Z"/><path class="cls-1" d="M55.92.55h9.8V43.66q.09,6.83,3.83,10.41a12.5,12.5,0,0,0,9.37,3.76,12.8,12.8,0,0,0,9.47-3.76Q92,50.49,92.12,43.66V.55h9.8V44.73q-.18,10.53-6.61,16.72a22.73,22.73,0,0,1-16.39,6.46,22.64,22.64,0,0,1-16.24-6.45Q56,55.28,55.92,44.76Z"/><path class="cls-1" d="M113.88.55h25.29q8.09,0,13.2,4.4,6.13,5,6.41,14.25-.18,13.62-12.5,18.51l15,29.65H149.61L136.22,38.81H123.67V67.36h-9.8V.55Zm9.79,29.28h14.86q5.52-.09,8.28-3.31a10.52,10.52,0,0,0,2.71-7.35c-.05-3.49-1.14-6-3.24-7.57-1.66-1.39-4.07-2.07-7.21-2.07h-15.4Z"/><path class="cls-1" d="M173.66.55h9.23L201.44,44.1,219.64.55h9.27V67.36h-9.8V25.7h-.22L205.34,57.78h-8.17L183.63,25.7h-.18V67.36h-9.79V.55Z"/><path class="cls-1" d="M240.23,34q0-11.66.67-15.61A19,19,0,0,1,243.07,12a22.84,22.84,0,0,1,7.54-8.22A21.85,21.85,0,0,1,263.35,0a22.1,22.1,0,0,1,12.86,3.75A22.44,22.44,0,0,1,283.58,12a15.79,15.79,0,0,1,2.26,6.37A134.18,134.18,0,0,1,286.41,34a134.68,134.68,0,0,1-.57,15.49,16,16,0,0,1-2.26,6.46,21.58,21.58,0,0,1-7.37,8.15,22.59,22.59,0,0,1-12.86,3.85,23.28,23.28,0,0,1-20.27-12c-.48-1-.91-2-1.29-2.89a20.13,20.13,0,0,1-.89-3.57C240.45,46.75,240.23,41.6,240.23,34Zm9.8,0q0,9.87.71,13.37A11.39,11.39,0,0,0,253.27,53a11.73,11.73,0,0,0,4.1,3.35,11.22,11.22,0,0,0,5.95,1.52,11.81,11.81,0,0,0,6.09-1.52A11.09,11.09,0,0,0,273.33,53,12,12,0,0,0,276,47.32q.68-3.49.67-13.37T276,20.5a11.77,11.77,0,0,0-2.62-5.56,11.87,11.87,0,0,0-3.92-3.45,13.88,13.88,0,0,0-6.09-1.42,13.29,13.29,0,0,0-5.95,1.42,12.56,12.56,0,0,0-4.1,3.45,11.31,11.31,0,0,0-2.53,5.56Q250,24.09,250,34Z"/><path class="cls-1" d="M297.31.55H320q13.13.1,19.71,11.27a20.58,20.58,0,0,1,3,7.88c.32,2.76.48,7.5.48,14.25a101,101,0,0,1-.75,15,17.26,17.26,0,0,1-1.07,3.85,35.05,35.05,0,0,1-1.82,3.43,22.85,22.85,0,0,1-7.9,7.79,21.88,21.88,0,0,1-12.3,3.3h-22V.55Zm9.8,57.28h11.73c5.52,0,9.51-1.95,12-5.83a11.44,11.44,0,0,0,2.09-5.47q.39-3.26.4-12.21,0-8.73-.4-12.49a11.7,11.7,0,0,0-2.54-6.11,12.9,12.9,0,0,0-11.55-5.65H307.1V57.83Z"/><path class="cls-1" d="M354.07.55h41.34v9.53H363.87V29.19H390.8v9H363.87V57.83h31.54v9.52H354.07Z"/><path class="cls-1" d="M403.92.55h9.8V57.84h31.54v9.52H403.92V.55Z"/></g></g></svg>