<svg xmlns="http://www.w3.org/2000/svg" viewBox="0 0 235.99 67.8"><defs><style>.cls-1{fill:#fff;}</style></defs><g id="Layer_2" data-name="Layer 2"><g id="Layer_1-2" data-name="Layer 1"><polygon class="cls-1" points="9.78 0.55 0 0.55 0 67.25 41.27 67.25 41.27 57.74 9.78 57.74 9.78 0.55"/><path class="cls-1" d="M92.44,12A22.17,22.17,0,0,0,72.24,0,21.73,21.73,0,0,0,59.53,3.74,22.59,22.59,0,0,0,52,11.94a18.76,18.76,0,0,0-2.17,6.37q-.66,3.95-.67,15.59,0,11.45.67,15.46a19,19,0,0,0,.88,3.57q.59,1.38,1.29,2.88a23.21,23.21,0,0,0,20.24,12A22.49,22.49,0,0,0,85.08,64a21.48,21.48,0,0,0,7.36-8.15,15.8,15.8,0,0,0,2.26-6.45,133.93,133.93,0,0,0,.57-15.46,133.66,133.66,0,0,0-.57-15.55A15.69,15.69,0,0,0,92.44,12ZM84.82,47.24a11.92,11.92,0,0,1-2.61,5.64,11,11,0,0,1-3.91,3.35,11.77,11.77,0,0,1-6.08,1.51,11.22,11.22,0,0,1-6-1.51,11.47,11.47,0,0,1-4.08-3.35,11.18,11.18,0,0,1-2.53-5.64Q58.94,43.76,59,33.9t.71-13.43a11.15,11.15,0,0,1,2.53-5.55,12.35,12.35,0,0,1,4.08-3.44,13.29,13.29,0,0,1,6-1.42,14,14,0,0,1,6.08,1.42,11.81,11.81,0,0,1,3.91,3.44,11.86,11.86,0,0,1,2.61,5.55q.68,3.57.67,13.43T84.82,47.24Z"/><path class="cls-1" d="M128.7,40.07h13.18v3.49a14.3,14.3,0,0,1-3.81,10.14,12.33,12.33,0,0,1-9.46,4,11.22,11.22,0,0,1-6-1.51,11.55,11.55,0,0,1-4.08-3.35,11.31,11.31,0,0,1-2.53-5.64q-.7-3.48-.71-13.34t.71-13.43a11.15,11.15,0,0,1,2.53-5.55,12.35,12.35,0,0,1,4.08-3.44,13.21,13.21,0,0,1,5.94-1.42,12.49,12.49,0,0,1,8,2.81,14.74,14.74,0,0,1,4.35,6.89h10.38a25.35,25.35,0,0,0-7.44-14Q138,.09,128.63,0a21.68,21.68,0,0,0-12.71,3.75A22.86,22.86,0,0,0,108.39,12a18.76,18.76,0,0,0-2.17,6.36q-.66,3.93-.66,15.55,0,11.45.66,15.46a18.89,18.89,0,0,0,.89,3.57c.38.92.81,1.88,1.28,2.88a23.21,23.21,0,0,0,20.24,12A22.46,22.46,0,0,0,145,60.9a23.94,23.94,0,0,0,6.64-16.77V30.56h-23Z"/><rect class="cls-1" x="164.15" y="0.55" width="9.78" height="66.7"/><polygon class="cls-1" points="226.21 0.55 226.21 47.97 226.03 47.97 196.77 0.55 187.55 0.55 187.55 67.25 197.33 67.25 197.33 19.83 197.51 19.83 226.73 67.25 235.99 67.25 235.99 0.55 226.21 0.55"/></g></g></svg>