<svg xmlns="http://www.w3.org/2000/svg" viewBox="0 0 420.82 67.8"><defs><style>.cls-1{fill:#fff;}</style></defs><g id="Layer_2" data-name="Layer 2"><g id="Layer_1-2" data-name="Layer 1"><path class="cls-1" d="M17.71,9.51H0v-9H45.21v9H27.49V67.25H17.71Z"/><path class="cls-1" d="M52.83.55H78.07q8.07,0,13.18,4.39,6.14,5,6.4,14.23-.16,13.59-12.47,18.48l14.95,29.6H88.51L75.14,38.75H62.61v28.5H52.83Zm9.78,29.24H77.45q5.51-.09,8.26-3.3a10.52,10.52,0,0,0,2.71-7.35q-.09-5.22-3.24-7.56Q82.69,9.51,78,9.51H62.61Z"/><path class="cls-1" d="M142.33,52.33h-24.5l-5,14.92H102.49L126,.55h8.2l23.48,66.7H147.34Zm-2.79-8.95-9.35-29.19H130l-9.35,29.19Z"/><path class="cls-1" d="M165.61.55h25Q200.19.64,205,5.49t4.83,13a15.69,15.69,0,0,1-1.91,7.87A12.74,12.74,0,0,1,205,29.69a21.11,21.11,0,0,1-4.7,3.07v.18a13,13,0,0,1,8,5.72,19.12,19.12,0,0,1,2.54,9.65Q210.72,57,205.57,62a17,17,0,0,1-12.73,5.26H165.61Zm9.78,9V28.69h14.15q5.37,0,7.9-2.9A9.29,9.29,0,0,0,200,19.08a9.78,9.78,0,0,0-2.57-6.85q-2.53-2.62-7.9-2.72Zm0,28.14V57.74H190.5q5.46-.09,8-3.07a10.32,10.32,0,0,0,2.53-7,10.44,10.44,0,0,0-2.53-7.06q-2.53-2.9-8-3Z"/><path class="cls-1" d="M255.11,52.33h-24.5l-5,14.92H215.28L238.76.55H247l23.49,66.7H260.12Zm-2.79-8.95L243,14.19h-.17l-9.35,29.19Z"/><path class="cls-1" d="M279.56,53.25a10.7,10.7,0,0,0,3.55,3.07,9.07,9.07,0,0,0,5.1,1.42A11.2,11.2,0,0,0,295.64,55a9.39,9.39,0,0,0,2.69-3.76,13.59,13.59,0,0,0,1-5.63V.55h9.78v46Q309,56.6,302.76,62.08a20.88,20.88,0,0,1-14.29,5.72q-11.34-.27-17.05-8.65Z"/><path class="cls-1" d="M320.52,33.9q0-11.64.66-15.59a19,19,0,0,1,2.17-6.37,22.76,22.76,0,0,1,7.53-8.2A21.75,21.75,0,0,1,343.59,0a22.17,22.17,0,0,1,20.2,12,15.54,15.54,0,0,1,2.26,6.36,133.66,133.66,0,0,1,.57,15.55,133.93,133.93,0,0,1-.57,15.46,15.91,15.91,0,0,1-2.26,6.46A21.58,21.58,0,0,1,356.44,64a22.55,22.55,0,0,1-12.85,3.84,23.23,23.23,0,0,1-20.24-12c-.47-1-.9-2-1.28-2.89a18.89,18.89,0,0,1-.89-3.57Q320.52,45.34,320.52,33.9Zm9.78,0q0,9.85.71,13.34a11.23,11.23,0,0,0,2.53,5.64,11.47,11.47,0,0,0,4.08,3.35,11.22,11.22,0,0,0,5.95,1.51,11.77,11.77,0,0,0,6.08-1.51,11,11,0,0,0,3.91-3.35,12,12,0,0,0,2.62-5.64q.66-3.48.66-13.34a88.51,88.51,0,0,0-.66-13.43,12,12,0,0,0-2.62-5.55,11.81,11.81,0,0,0-3.91-3.44,14,14,0,0,0-6.08-1.42,13.29,13.29,0,0,0-5.95,1.42,12.35,12.35,0,0,0-4.08,3.44A11.23,11.23,0,0,0,331,20.47Q330.29,24,330.3,33.9Z"/><path class="cls-1" d="M379.91,51.09a27.81,27.81,0,0,0,18.36,6.65q12.59-.18,12.77-9.29.09-7.47-8.42-9c-2.6-.36-5.45-.78-8.56-1.24q-8.32-1.41-12.67-6.36a18,18,0,0,1-4.48-12.36q0-8.75,5.62-14.11Q388,.09,398,0a35.57,35.57,0,0,1,20.95,6.89l-5.46,8.31a28.86,28.86,0,0,0-16-5.14,11.92,11.92,0,0,0-7.54,2.34c-2.1,1.61-3.18,4-3.24,7.23a7.48,7.48,0,0,0,2.17,5.22q2.17,2.38,7,3.3c1.77.3,4.2.65,7.27,1.05q9.09,1.29,13.43,6.73a19.31,19.31,0,0,1,4.3,12.46q-.48,19.14-22.67,19.41a36,36,0,0,1-24.66-9.1Z"/></g></g></svg>